<?xml version="1.0" encoding="utf-8"?>
<!-- Generator: Adobe Illustrator 27.0.0, SVG Export Plug-In . SVG Version: 6.00 Build 0)  -->
<svg version="1.1" id="图层_1" xmlns="http://www.w3.org/2000/svg" xmlns:xlink="http://www.w3.org/1999/xlink" x="0px" y="0px"
	 viewBox="0 0 1024 1024" style="enable-background:new 0 0 1024 1024;" xml:space="preserve">
<style type="text/css">
	.st0{fill:#1A1A1A;}
	.st1{fill:#E3E3E3;}
	.st2{fill:#F0C33D;}
	.st3{fill:#BE893A;}
	.st4{fill:#A97436;}
	.st5{fill:#D49F3E;}
	.st6{fill:#FDFDFD;}
	.st7{fill:#CCCCCC;}
	.st8{fill:#8D5930;}
	.st9{fill:#6E4629;}
	.st10{fill:#4A3024;}
</style>
<path class="st0" d="M428,194.4l7,13.5l0.1,0.3l-0.3,0.5l-2.2,1.2l-0.4,0l-0.3-0.3l-7-13.5l-0.3-0.3l-0.4,0.1l-3.9,2.6l-0.3,0.1
	l-0.4-0.2l-1.6-2l-0.1-0.4l0.3-0.5l12-6.6l0.3-0.1l0.4,0.2l1.2,2l0.1,0.4l-0.3,0.3l-3.5,1.8l-0.2,0.2L428,194.4z"/>
<path class="st0" d="M598.2,209l1.6,0.6l1.5,0.1l0,0l1.3-0.3l1.2-0.7l0.6-0.3l0.6-0.1l0,0l0.5,0.2l0.5,0.4l0.4,0.4l0.3,0.6v0.5l0,0
	l0,0l-0.2,0.4L606,211l-1.9,0.7l-1.8,0.4l-1.7,0.1L599,212l-2.4-0.9l-1.8-1.3l-1.3-1.6l-0.7-1.3l-0.5-1.4l-0.2-1.4l0-1.5l0.2-1.5
	l0.4-1.4l0.6-1.4l0.9-1.3l1-1.1l1.2-0.9l1.3-0.8l1.4-0.5l1.5-0.3l1.5-0.1l2.2,0.3l2.1,0.9l1.8,1.3l1.4,1.8l0.6,1.2l0.4,1.3l0.3,2.7
	l-0.2,0.4l-0.4,0.2l-0.6,0l-0.6-0.2l0,0l-0.5-0.4l-0.6-1.4l-0.8-2.2l-1.3-1.6l0,0l-1.2-0.8l-1.4-0.5l-1.7-0.2l-1.6,0.2l-1.5,0.6
	l-1.3,1l-1.1,1.4l-0.8,1.6l-0.4,1.7l0,1.7l0.4,1.5l0.8,1.4l0.9,0.9L598.2,209z"/>
<path class="st0" d="M254.3,670.2l-0.2-0.4l-0.4-0.1l-53,5.3l-4.1,0.3l-3.6,0.1l-3.2-0.2l-2.9-0.5l-4.2-1.1l-3.8-1.6l-3.4-2l-3-2.4
	l0,0l-2.9-3.3l-2.4-3.8l-1.9-4.4l-1.3-5l-0.5-4.5l-0.2-6.4l-0.1-101.6l0.1-3.5l0.3-3.3l0.5-3.1l0.7-2.9l0.9-2.8l1.2-2.6l1.4-2.4
	l1.6-2.2l2.4-2.7l2.8-2.4l3.2-2.1l3.6-1.8l4.5-1.6l4.7-1.2l4.9-0.7l5.1-0.3l52.2-0.7l0.3-0.1l0.1-0.3l0-140.2l0.1-3.2l0.3-3.1
	l0.5-2.9l0.7-2.8l0.9-2.6l1.1-2.5l1.3-2.3l1.5-2.2l2.2-2.5l2.5-2.3l4-2.6l8.5-4.8l58.9-32.9l58.7-33.2l58.6-33.5l58.4-33.8l0.3-0.1
	l0.3,0.1l81.1,46.7l37,21.4l39,22.2l40.9,22.9l42.8,23.7l2.3,1.4l2.2,1.5l2,1.7l1.8,1.8l0,0l0,0l2.3,3l2,3.3l1.6,3.6l1.3,3.9
	l0.4,2.4l0.3,4.1l0.2,13.2l0.1,130.7l0.2,0.4l0.4,0.2l55.6,0.7l5,0.4l5.4,1.1l5.1,1.7l4.6,2.3l4,2.8l1.8,1.6l1.6,1.8l2.4,3.3l2,3.7
	l1.5,4l1.1,4.4l0.4,4.3l0.1,6.8l-0.1,104.2l-0.2,4.3l-0.7,4l-1.2,3.8l-1.7,3.5l0,0l0,0l0,0l-2,2.9l-2.4,2.7l-2.8,2.4l-3.3,2.2
	l-2.3,1.2l-2.3,0.9l-2.5,0.8l-2.6,0.5l-2.8,0.3l-3,0.1l-6.8-0.3l-54.6-5.3l-0.4,0.1l-0.2,0.4l-0.6,4l-1,3.7l-1.5,3.4l-1.9,3.1
	l-1.2,1.6l-1.7,1.7l-2.6,2l-3.4,2.2l-4.3,2.5L648,752.2l-116,66.3l-18.3,10.9l-1,0.3l-1-0.2L417.3,775l-40.1-22.8l-38.3-21.5
	l-36.5-20.2l-34.7-18.9l-2.7-1.6l-2.2-1.6l-1.8-1.6l-1.4-1.7l-1.6-2.5l-1.3-2.6l-1-2.6l-0.8-2.7l0,0L254.3,670.2z M470.4,259.8
	l13,7.6l16.7,9.8l10.7,6.5l1.1,0.3l1.1-0.3l41.1-23.7l17-10.3l0,0l0.1-0.2l-0.1-0.2l-16.5-9.6l-42.1-24.4h0h-0.4l-58.7,33.9
	l-0.1,0.3l0.1,0.2L470.4,259.8z M417.9,291.1l40.4,23.9h0.7l18.9-11.2l21.7-13.1l0-0.2l0,0l-19-11.8l-37.9-23h-0.2l-42.2,24.1
	L400,280l0.1,0.2l0,0L417.9,291.1z M544.4,278.2L525,289.9l-0.2,0.3l0.1,0.3l0.1,0l21.6,12.8l18.9,11.2l0.6,0.2l0.7-0.2l40.3-23.6
	l17-10.2l0.2-0.3l-0.1-0.3l0,0l-0.1-0.1l-20-11.5l-22.1-12.9l-0.5-0.1l-0.5,0.1L544.4,278.2z M628.5,304.8l0,24.7l0.1,20l0.1,0.5
	l0.3,0.3l44.1,25.2l15.1,8.3l0.5,0.1l0.2-0.5l0.1-43.6L689,318l-0.1-0.4l-0.3-0.4l-3.3-2.2l-56.2-31.8l-0.4-0.1l-0.1,0.4
	L628.5,304.8z M335.8,339.3l0,43.7l0.1,0.3l0.3-0.1l13.9-7.4l31.3-17.8l13.4-7.7l0.4-0.4l0.2-0.6v-65.8l-0.1-0.3l-0.3-0.1l-0.1,0
	l-3.6,1.8l-54.9,31.2l-0.5,0.4l-0.2,0.6L335.8,339.3z M511.7,346l0.6,0l0.1,0l41.5-24l0.3-0.3l0.1-0.5l-0.3-0.4l-41.4-24.2h-0.7
	l-41.5,24l-0.2,0.2l-0.1,0.5l0.3,0.4L511.7,346z M414.2,453.5l0,25.3l0.2,0.4l0.4,0.1l0.1-0.1l38.2-21.8l0.8-0.8l0.3-1.1v-73.3
	l0-0.1l0.2-0.2l0.2,0l56.7,32.7l0.5,0.1l0.5-0.1l55.9-31.9l0.3-0.1l0.1,0.3v72.4l0.2,0.6l0.4,0.4l39.7,22.4l0.7,0.1l0.2-0.6l0-23.9
	l0.1-143.2l-0.1-0.2l-0.3,0.1l-96.4,55l-0.8,0.2l-0.8-0.2l-97-54.9l0,0l-0.2,0.2L414.2,453.5z M271.7,397.2l0.1,21.1l0.1,0.3
	l0.3,0.1l0,0l0.1,0l50.5-28.8l0.5-0.5l0.2-0.7l0-19.6l-0.1-23.1l-0.1-22.6l0-0.1l-0.2-0.2l-0.3,0l-50.4,28.8l-0.5,0.5l-0.2,0.7
	L271.7,397.2z M701.7,346.6l0,23.4l0.1,19.5l0.2,0.7l0.5,0.5l48.4,27.4l0.1,0l0.3-0.1l0.1-0.3l0-23.2l0-20.3l0-21.8l-0.2-0.6
	l-0.4-0.4l-48.5-27.4l-0.1,0l-0.3,0.1l-0.2,0.3V346.6z M394.9,398.2l0.4,0l0.2-0.3l0-0.1v-29.3l-0.3-0.4l-0.4,0L369,382.8h0
	l-0.2,0.4l0.2,0.4L394.9,398.2z M628.4,398.7l0.1,0.3l0.3,0.1l0.3-0.1l25.8-15l0.2-0.2l0-0.3l-0.2-0.2L629,368.4h-0.5l-0.2,0.4
	L628.4,398.7z M333.3,402.4l-18.9,10.9l-19.4,11.3l-0.1,0.1l-0.1,0.4l0.2,0.3l22,12.8l17.9,10.3l44.6,25.6l15.4,9l0.5,0.1l0.1-0.4
	l-0.1-22.2l0.1-42.5l-0.3-1l-0.7-0.7l-42.5-24l-0.6-0.2l-0.6,0.2L333.3,402.4z M628.2,439.2l0.1,44.2l0.1,0.3l0.3,0.1l0.1,0l15.8-9
	l44.8-25.8l18-10.5l22-12.8l0.2-0.3l-0.2-0.3l-20.7-11.7l-17.6-10.2l-18.5-10.5l-0.4-0.1l-0.4,0.1l-42.9,24.5l-0.4,0.4l-0.1,0.5
	L628.2,439.2z M470.3,432.4l0.1,67.8l0.1,0.3l0.3,0.1l22.1,0.1l18.8,0l16.3,0.1l23.4,0l0.5-0.2l0.1-0.4l-0.3-68.3l0-19.6l-0.2-0.7
	l-0.7,0.1l-39,22.6l-40.1-22.8l-0.5-0.2l-0.4,0l0,0l-0.2,0.3l-0.1,0.6L470.3,432.4z M271.7,451l0.1,50.8l0,0l0.1,0.2l0.2,0.1
	l14.8-0.2l20.1-0.2l15.6-0.1l0.4-0.1l0.1-0.4v-40l-0.3-1l-0.7-0.7l-15.1-8.6l-20.4-11.2l-14.2-7.8l-0.6-0.1l-0.2,0.6L271.7,451z
	 M735.9,440.6l-18.4,10.5l-15.9,9.1l-0.4,0.4l-0.1,0.5V501l0.1,0.3l0.3,0.1l16.1,0.1l18.6,0.2l14.8,0.3h0l0.5-0.2l0.2-0.5l-0.1-47.4
	l-0.1-21.5l0-0.1l-0.2-0.2l-0.3,0L735.9,440.6z M337.7,490.5l-0.1,10.4l0.1,0.3l0.3,0.1l0,0l0,0l18.2-0.4l17.3,0.1l17.9-0.7l0.4-0.1
	l-0.3-0.3l-53.5-30.2l-0.3,0l-0.2,0.2l0,0.1L337.7,490.5z M685.6,501.1l0.3-0.3l0-30.6l-0.1-0.3l-0.3-0.1l-0.1,0l-51.8,30.2
	l-0.2,0.3l0.2,0.3l0.1,0L685.6,501.1z M569.7,476.2l-0.8,0l-0.5,0.6l0,0.2l0.1,23.1l0.2,0.6l0.6,0.2l39.8-0.2l0.4-0.1l0.3-0.3
	l0.1-0.6l-0.4-0.5L569.7,476.2z M435.1,487.4L415,499l-0.6,0.7l0,0.4l0.2,0.3l0.4,0.1l20.7,0.2l17.9,0l0.4-0.2l0.2-0.4V477l-0.1-0.3
	l-0.3-0.1l-0.1,0L435.1,487.4z M451.8,522.7l-62.5,0.2l-2.5,0.1l-2.2,0.4l-1.9,0.6l-1.6,0.8l-1.1,0.8l-0.9,0.9l0,0l0,0l-0.9,1.3
	l-0.6,1.5l-0.4,1.7l-0.1,2l-0.2,71.7l0.1,37l0.1,0.2l0.2,0.1l30.6-0.8l31.3-0.6l3-0.2l2.6-0.6l2.2-1l1.8-1.4l0,0l0,0l1.2-1.4
	l0.9-1.6l0.6-1.5l0.5-1.8l0.3-2l0.2-5.8v-0.5l-0.1-99.6l-0.1-0.3L451.8,522.7z M499.3,595.4l0.1-0.3l0.3-0.1l37.6,0l0.3-0.1l0.1-0.3
	l0-23.5l-0.2-0.3l-0.2-0.1h-37.5l-0.3-0.1l-0.2-0.3l0-21.6l0.1-0.3l0.3-0.1l43.4-0.1l0.1,0l0.3-0.4l0-24.5l-0.1-0.3l-0.3-0.1
	l-69.9,0l-0.3,0.1l-0.1,0.3l0.1,117.1l0.1,0.3l0.3,0.1h0.1l70.7-0.1l0.1,0l0.3-0.4l-0.1-23.3l-0.2-0.4l-0.2-0.1l-44.2,0l-0.3-0.1
	l-0.1-0.3L499.3,595.4z M612.3,606.7l0.2,0.1l0.1,0.3l0.1,34.5l0.2,0.3l0.2,0l24.4,0.8l0.1,0l0.3-0.4l-0.2-119l-0.1-0.3l-0.3-0.1
	l-73.7-0.3l-0.3,0.1l-0.1,0.3l0.1,117.3l0.3,0.3l0.1,0l24.6,0.5l0.3-0.1l0.1-0.3l-0.1-34.3l0.1-0.3l0.3-0.1L612.3,606.7z M711,621.5
	l-0.2-0.1l-0.1-0.3l-0.1-71l0.1-0.3l0.3-0.1l29.2,0.6l0.3-0.1l0.1-0.3l0-25.7l-0.1-0.3l-0.2-0.1h0l-82.6-0.8l0,0l-0.3,0.4l0.1,24.8
	l0.1,0.2l0.2,0.1L685,549l0.3,0.1l0.1,0.3l0.1,70l-0.1,0.3l-0.3,0.1l-15.2-0.8l-0.4,0.3l0,0.1l0,24l0.1,0.2l0.2,0.1l60,3.5l0.3-0.1
	l0.1-0.3l0,0v0l-0.3-23.6l-0.3-0.4L711,621.5z M305.2,595.1l22.9,34.2l0.3,0.5l0.1,0.6v12.9v0l0.2,0.5l0.5,0.2l26.9-1.1l0.4-0.1
	l0.1-0.4v-23.1l-0.1-0.4l-0.4-0.1l-1.1,0l-1.9,0.3l-1.9,0.5l-1,0l-0.8-0.6L337.3,600l0-0.4l0.3-0.3l0,0l0.1,0l4.7,0l4.1-0.4l2.5-0.5
	l2-0.7l1.6-0.9l1.4-1.2l1.2-1.8l0.8-2.3l0.7-4.8l-0.1-52.5l-0.1-1.8l-0.4-1.6l-0.6-1.5l-0.8-1.3l-1.8-2l-2.5-1.5l-2.9-0.9l-3.2-0.3
	l-66.1,0.2l-0.3,0.1l-0.1,0.3v122.9v0l0.2,0.5l0.5,0.2l25.7-2.1l0.2-0.3v-49.8l0.2-0.7L305.2,595.1z M766.8,575.3l-8.6-2.2l-0.4,0
	l-0.1,0.4v22.2l0.1,0.4l0.3,0.4l3.9,2.1l4.3,1.7l0.3,0.2l0.1,0.4v21.8l-0.1,0.3l-0.3,0.1l-9.6-0.6l-0.4,0.1l-0.1,0.3v25.3l0.2,0.4
	l0.4,0.2l71.5,5.7l2.9,0l3.4-0.5l2.3-0.8l1.7-1.3l0,0l0,0l0.7-0.9l0.5-1.1l0.5-2.7l0.3-9.9l-0.2-11.7l-0.2-0.4l-0.4-0.2l-21.7-1.9
	l-0.5,0.1l-0.2,0.5l-0.1,2.2l-0.2,0.5l-0.5,0.1l-23.3-1.3l-0.5-0.2l-0.2-0.5v-15.9v0l0.2-0.3l0.3-0.1l21.5,4.4l0.3-0.1l0.1-0.2l0,0
	v0v-26.7l-0.2-0.4l-0.4-0.2l-21.3-2.5l-0.4-0.2l-0.1-0.5v-29.4l0,0l23.5,0.2l0.7,0.3l0.3,0.7v21.8l0.1,0.4l0.4,0.2l22.8,1.3l0.2-0.2
	v0l-0.2-39.9l-0.2-2.8l-0.6-2.4l-1-2l-1.3-1.7l0,0l-1.6-1.2l-1.9-0.9l-2.2-0.6l-2.6-0.2l-26.4-0.6l-40.1-0.6l-4.3,0l-0.5,0.2
	l-0.1,0.3l0.1,25.7l0.2,0.5l0.5,0.2l7.8,0.1l0.5,0.2l0.2,0.5v23.6v0L766.8,575.3z M233.2,552.3v17.2l0.1,0.3l0.3,0.1l24.6-1l0.4-0.1
	l0.1-0.4l0-33.1l-0.2-2.6l-0.5-2.3l-0.9-1.9l-1.2-1.5l0,0l-1.6-1.2l-1.9-0.8l-2.2-0.5l-2.6-0.1l-47.7,0.5l-4.9,0.3l-3.7,0.7
	l-2.2,0.9l-1.8,1.3l-1.5,1.6l-1.1,1.9l-0.8,2.1l-0.4,2.3l-0.5,7.7l0.1,95.2l0.3,5.6l0.3,2.1l0.5,1.6l0.9,1.9l1.2,1.5l2.1,1.6
	l2.6,1.1l2.9,0.5l3.3-0.1l30.8-3l30.7-2.7l0.5-0.2l0.2-0.5v-25.5l-0.1-0.3l-0.3-0.1h0l-49.5,4.1h0l-0.3-0.1l-0.1-0.3v-72.7l0.2-0.4
	l0.4-0.2l23.2-1l0.5,0.1L233.2,552.3z M596.3,682.5l0.1,3.9l0.4,2.8l0.7,1.9l1,1.6l0.9,0.9l1.1,0.8l1.3,0.6l1.4,0.4l3,0.4l3.3-0.3
	l2.8-0.9l1.2-0.7l1-0.8l0,0l0,0l0,0l0.9-1.1l0.7-1.4l0.5-1.6l0.3-1.8l-0.1-0.5l-0.5-0.1l-5.3-0.1l-0.6,0.2l-0.2,0.6l-0.2,1.5
	l-0.1,0.3l-0.5,0.7l-0.7,0.6l-0.9,0.4l-1,0.2h-1l-1-0.2l-0.8-0.4l-0.6-0.6l0-0.1l-0.5-1.1l-0.3-1.4l-0.2-3.8l0-1.1l0-1.1l0.2-3.8
	l0.3-1.4l0.5-1.1l0-0.1l0.6-0.6l0.8-0.4l1-0.2h1l1,0.2l0.9,0.4l0.7,0.6l0.4,0.8l0.1,0.3l0.2,1.5l0.2,0.6l0.6,0.2l5.3,0l0.5-0.2
	l0.1-0.5l-0.3-1.8l-0.5-1.5l-0.7-1.4l-0.9-1.1l0,0l0,0l-1-0.8l-1.2-0.7l-2.8-0.9l-3.3-0.3l-3,0.4l-1.4,0.5l-1.3,0.6l-1.1,0.8
	l-0.9,0.9l-1,1.6l-0.7,1.9l-0.4,2.8L596.3,682.5z M507.5,691.1L507.5,691.1l-0.4-0.4l-9.3,0l-0.3-0.1l-0.2-0.3l0-20.4v-0.1l-0.1-0.3
	l-0.3-0.1l-5.4-0.1l-0.3,0.1l-0.1,0.3l0.1,25.1l0.1,0.3l0.3,0.1l0,0l0,0l15.5-0.1l0.2,0l0.2-0.4L507.5,691.1z M519,691.1l0.2-0.5
	l0.5-0.2l6.4,0l0.5,0.1l0.2,0.4l0.9,3.9l0.2,0.4l0.4,0.2l0,0l5.4,0.1l0.2,0l0.4-0.3l0.1-0.5l-7.2-24.8l-0.2-0.4l-0.4-0.1l-7.2,0
	l-0.4,0.2l-0.2,0.4l-6.3,24.7l0,0.3l0.2,0.4l0.4,0.1l5.1-0.1l0.5-0.2l0.2-0.5L519,691.1z M550.2,691.3l-1-0.1l-0.9-0.3l-0.8-0.5
	l-0.5-0.7l-0.4-1.5l-0.1-18.2l-0.1-0.4l-0.4-0.1h-5.2l-0.4,0.2l-0.1,0.4l0.2,16l0.2,3.2l0.5,2.1l1.1,1.7l1.4,1.2l1.9,0.9l2.2,0.5
	l2.6,0.2l2.6-0.2l2.2-0.5l1.9-0.9l1.4-1.2l1.1-1.7l0.5-2.1l0.2-3.2l0.1-16l-0.1-0.4l-0.5-0.1l-5.2,0l-0.4,0.1l-0.1,0.4l0,18.2
	l-0.4,1.5l-0.6,0.7l-0.7,0.5l-0.9,0.3L550.2,691.3z M335,688.7l0,0.8l-0.3,0.8l-0.6,0.6l-0.8,0.3l-2.1,0.2l-0.8-0.2l-0.7-0.4l0,0
	l-0.6-0.6l-0.4-0.8l-0.5-0.7l-0.8-0.3h-4l-0.1,0l-0.6,0.4l-0.1,0.7l1.1,2.5l0.8,1.1l0.9,0.9l1.8,1.1l2.3,0.7l2.6,0.1l2.9-0.4l2-0.6
	l1.7-1l1.3-1.2l0.9-1.5l0.5-1.9l-0.1-2.1l-0.6-1.8l-1-1.4l-1.5-1.3l-2-1.2l-3-1.4l-2-0.9l-1-0.6l-0.9-0.9l-0.5-0.8l-0.1-0.9l0.1-0.3
	l0.3-0.6l0.7-0.6l1.1-0.3l1.6,0l1.2,0.5l0,0l0.5,0.5l0.4,0.7l0.7,0.8l1,0.3h3.2l0.1,0l0.7-0.4l0.1-0.8l-1-2.4l-1.5-1.8l0,0l0,0
	l-2-1.2l-2.4-0.6l-3,0l-2.6,0.5l-2.2,1.1l-1.5,1.5l-0.6,1l-0.4,1.2l-0.2,1.3l0,1.4l0.4,2l0.8,1.8l0,0l0,0l0,0l0.8,1l1,0.9l1.2,0.8
	l1.4,0.7l4.3,1.7l1,0.6l0.7,0.8L335,688.7z M348.1,682.5l0,12.4l0.1,0.3l0.3,0.1h15.7l0.4-0.1l0.1-0.4v-3.6l-0.1-0.3l-0.4-0.1H355
	l-0.4-0.1l-0.1-0.4v-5l0.1-0.4l0.5-0.2h7.7l0.4-0.1l0.2-0.4l0-1.7l-0.1-1.7l-0.2-0.4l-0.4-0.1l-7.7,0.1l-0.4-0.2l-0.1-0.4l0-5
	l0.1-0.4l0.4-0.1l9.2-0.1l0.4-0.1l0.1-0.3l0-3.6l-0.1-0.4l-0.4-0.1l-15.7,0.1l-0.3,0.1l-0.1,0.3L348.1,682.5z M387.9,684.3l1.4-1.3
	l0.7-1l0.6-1.2l0.6-2.8l0-1.7l-0.2-1.5l-0.4-1.3l-0.7-1.1l-1.4-1.3l-1.8-0.9l-2.3-0.5l-2.8-0.2l-9.5,0.1l-0.4,0.1l-0.1,0.4v24.4
	l0.2,0.5l0.5,0.2h5.1l0.5-0.2l0.2-0.5v-9.2l0.1-0.5l0.5-0.2l2.3,0.1l0.4,0.2l0.3,0.4l2.7,9.3l0.3,0.2h6.6l0.2-0.1l0-0.2l-1.9-4.3
	l-2-5.6l0-0.4L387.9,684.3z M407.4,695.4l3.3,0l0.4-0.2l0.2-0.3l6.4-24.8l0-0.4l-0.4-0.1l-5.6-0.1l-0.4,0.1l-0.2,0.3l-3.8,19.3
	l-3.9-19.3l-0.2-0.3l-0.4-0.1l-5.6,0.1l-0.4,0.1l0,0.4l6.6,24.7l0.2,0.3l0.4,0.1L407.4,695.4z M424.7,682.5l0,12.5l0.3,0.3h16
	l0.5-0.2l0.1-0.4v-3.5l-0.2-0.4l-0.4-0.2h-9.4l-0.3-0.1l-0.1-0.3l0.1-5.4l0.1-0.2l0.2-0.1h8.2l0.4-0.1l0.2-0.4l0-1.7l0-1.7l-0.2-0.4
	l-0.4-0.1l-8.2,0.1l-0.2-0.1l-0.1-0.2l-0.1-5.4l0.1-0.3l0.3-0.1l9.4-0.1l0.4-0.2l0.2-0.4l0-3.5l-0.1-0.4l-0.4-0.2l-16,0.1l-0.2,0.1
	l-0.1,0.2L424.7,682.5z M463.7,683.8l1.3-0.9l1-1.1l0,0l0,0l0.7-1.1l0.5-1.3l0.3-1.4l0-1.6l-0.4-2.5l-0.5-1.1l-0.6-0.9l-1.3-1.1
	l-1.6-0.7l-2-0.4l-2.5-0.2l-9.6,0.1l-0.4,0.2l-0.1,0.3V695l0.1,0.2l0.2,0.1h5.5l0.3-0.3v-9.3l0.2-0.6l0.6-0.2l2.1,0.3l0.5,0.5
	l0.5,1.2l2.6,8.1l0.3,0.2h6.1l0.2-0.1l0.1-0.3l0-0.1l-4.5-10.2l0-0.5L463.7,683.8z M574.3,678.7l0.1-0.4l0.2,0.3l7.2,16.2l0.3,0.4
	l0.5,0.1h5.6l0.4-0.1l0.1-0.4v-24.7l-0.2-0.5l-0.5-0.2h-4.5l-0.5,0.2l-0.2,0.5v14.1l-0.2,1.1l-0.6-1l-5.9-14.5l-0.3-0.3l-0.4-0.1
	l-6.6-0.1l-0.4,0.1l-0.1,0.4v24.8l0.2,0.5l0.5,0.2h4.9l0.3-0.1l0.1-0.3V678.7z M624.1,682.4l0,12.2l0.2,0.6l0.2,0l5.3,0l0.5-0.2
	l0.2-0.5l0-9.2l0.1-0.4l0.5-0.3h3l3,0l0.5,0.3l0.1,0.4v9.2l0.2,0.5l0.5,0.2l5.3,0l0.2-0.1l0.2-0.6l0.1-12.2l0-12.2l-0.2-0.6
	l-0.2-0.1l-5.3,0l-0.5,0.2l-0.2,0.5l0,9.2l-0.1,0.4l-0.5,0.3h-3l-3,0l-0.5-0.3l-0.1-0.4v-9.2l-0.2-0.5l-0.5-0.1l-5.3,0l-0.2,0
	l-0.2,0.6L624.1,682.4z M658.2,684.9l0.1-0.3l0.4-0.2l8.2,0l0.4-0.2l0.1-0.4l-0.2-3.4l-0.2-0.3l-0.4-0.1l-8,0l-0.4-0.2l-0.1-0.4
	l0-4.8l0.1-0.3l0.4-0.2l9.1,0.1h0.1l0.3-0.2l0.1-0.4l-0.1-3.8l-0.2-0.4l-0.4-0.2l-15.5,0.2l-0.3,0.1l-0.2,0.3l0,0l0,0.1l0.1,24.7
	l0.2,0.4l0.4,0.2l15.5-0.1l0.4-0.2l0.1-0.4l0-3.5l-0.2-0.4l-0.4-0.1l-9.2,0l-0.4-0.2l-0.2-0.4L658.2,684.9z M691,684.1l1.7-1.3
	l0.8-1.1l0.6-1.3l0.4-1.5l0.1-1.7l-0.1-1.7l-0.3-1.5l-0.6-1.3l-0.8-1.1l0,0l0,0l-1-0.8l-1.2-0.6l-1.5-0.4l-1.7-0.2l-6.1-0.1
	l-5.4,0.1l-0.3,0.3v24.7l0.2,0.5l0.6,0.2h4.8l0.5-0.2l0.1-0.5v-9.6l0.2-0.4l0.4-0.2h1.8l0.5,0.1l0.3,0.4l2.9,9.9l0.1,0.2l0.2,0.1
	h6.5l0.1,0l0.2-0.2l0-0.3l-4.3-9.8l-0.1-0.6L691,684.1z M463.4,725.3L463.4,725.3l0,0.2l-0.4,9.7l0.2,0.8l0.8,0.2l0.9,0l0.6-0.3
	l0.2-0.6l0.1-12.3l-0.2-0.5l-0.5-0.2l-2.8-0.1l-0.5,0.1l-0.2,0.4l-2.4,8.4l-0.4,1.1l-0.4,0.4l0,0l-0.3-0.4L458,731l-0.8-3.9
	l-1.2-4.2l-0.5-0.6l-0.8-0.2h-2.6l-0.5,0.2l-0.2,0.5v12.6l0.2,0.8l0.8,0.2h0.7l0.7-0.3l0.3-0.7l0,0v0l-0.4-8.2l0-1.5l0.2-0.5
	l0.3,0.5l0.5,1.4l2.4,8.6l0.3,0.4l0.4,0.2l0.3,0l1.3-0.2l0.4-0.3l0.2-0.4l2.5-9.8l0.4-0.3L463.4,725.3z M477.5,736.5l1.3-0.1
	l1.3-0.4l1.2-0.6l1-0.9l0.9-1.1l0.7-1.3l0.4-1.4l0.2-1.4l-0.1-1.4l-0.3-1.4l-0.6-1.3l-0.8-1.1l-1-0.9l-1.1-0.7l-1.2-0.5l-1.3-0.2
	l-1.3,0.1l-1.3,0.4l-1.2,0.6l-1,0.9l-0.9,1.1l-0.7,1.3l-0.4,1.4l-0.2,1.4l0.1,1.4l0.3,1.4l0.6,1.3l0.8,1.1l1,0.9l1.1,0.7l1.2,0.5
	L477.5,736.5z M509.4,730.5l0.2-0.5l0.5-0.1l4.5,0.2h0.1l0.7-0.3l0.3-0.8l0-0.5l-0.2-0.5l-0.5-0.2H510l-0.5-0.2l-0.2-0.5l0-2.6
	l0.2-0.5l0.5-0.1l5.3,0.3l0.6-0.1l0.3-0.5l0-0.5v0l-0.3-0.7l-0.8-0.3l-8-0.1l-0.4,0.2l-0.2,0.4v13.1l0.1,0.3l0.3,0.1l8.4,0.1
	l0.6-0.2l0.2-0.6l0-0.3l-0.2-0.8l-0.8-0.3h-5.2l-0.5-0.1l-0.1-0.5L509.4,730.5z M540.9,733h3l0.5,0.1l0.3,0.4l0.5,1.8l0.5,0.8
	l0.8,0.3l1.4,0l0.6-0.2l0.1-0.6l-1.9-6.3l-2.3-5.8l-0.4-0.6l-0.6-0.5l-0.7-0.2l-0.8,0l-1,0.5l-0.4,0.6l-0.3,1l-0.1,0.5l-2,6.8
	l-1.3,3.8l0,0.7l0.7,0.2h1.3l0.8-0.3l0.4-0.8l0.3-1.7l0.2-0.5L540.9,733z M489.8,722.6l-0.3,12.9l0.1,0.3l0.3,0.2l4.7,0.1l1.2-0.1
	l1.2-0.3l1.1-0.5l1-0.8l0.8-0.9l0.6-1.1l0.4-1.2l0.1-1.2l0-1.3l-0.1-1.2l-0.3-1.2l-0.6-1.1l-0.8-1l-0.9-0.8l-1.1-0.6l-1.2-0.4
	l-1.2-0.2l-4.7-0.1l-0.3,0.1L489.8,722.6z M524.3,730.9l0.8-0.1l1,0.3l0.4,0.3l0.2,0.4l1,3.5l0.2,0.4l0.5,0.3l1.6,0.2l1.7-0.2l0,0
	l0.2-0.2l0-0.3l-2.7-4.1l-0.2-0.7l0.3-0.6l1-1.2l0.6-1.1l0.3-1.1l0-1.1l-0.3-0.9l-0.6-0.9l-1.2-0.8l-1.9-0.5l-2.5-0.2l-3.3,0.2
	l-0.3,0.3l-0.1,12.8l0.1,0.5l0.5,0.1l2.1-0.1h0l0.4-0.2l0.1-0.4l-0.3-3.8l0.1-0.5L524.3,730.9z M556.5,736.2l1-0.1l0.4-0.2l0.1-0.4
	l0-10.8l0.1-0.3l0.3-0.1h2.8l0.4-0.2l0.1-0.5l0-0.3l-0.2-0.7l-0.7-0.3l-4.5,0l-4.5,0l-0.7,0.2l-0.2,0.7l0,0.3l0.1,0.5l0.5,0.2h2.8
	l0.4,0.1l0.1,0.3l0,10.8l0.2,0.4l0.4,0.2L556.5,736.2z M565.5,729.2l-0.1,6.3l0.2,0.4l0.4,0.2l0,0h8l0.5-0.2l0.2-0.5l0-0.5v0
	l-0.3-0.7l-0.7-0.3l-4.4,0.2l-0.7-0.2l-0.2-0.7l0-1.9l0.3-0.8l0.8-0.2l2.8,0.1l1-0.1l0.6-0.4l0.2-0.6l-0.2-0.6l0,0l-0.6-0.4l-1-0.1
	l-2.8,0.1l-0.8-0.2l-0.3-0.8l0-1.9l0.2-0.7l0.7-0.2l4.4,0.2l0.7-0.3l0.3-0.7v0l0-0.5l-0.2-0.5l-0.5-0.2l-8,0l0,0l-0.4,0.2l-0.2,0.4
	L565.5,729.2z M614.7,748.3l0.2-0.3v-21.6l-0.1-0.2l-0.4-0.1l-49.1,29l-0.2,0.3l0.2,21.6l0.2,0.3h0.3L614.7,748.3z M460.6,778.1h0.3
	l0.2-0.3l-0.1-21l-0.2-0.3l-50-29.3h-0.3l-0.2,0.3l0.1,21l0,0.2l0.1,0.1L460.6,778.1z M513.6,773.9l-35.8-21.2l-0.1,0l-0.3,0.1
	l-0.1,0.3v33.1l0.1,0.8l0.3,0.8l0.5,0.7l0.7,0.5l17.2,10l16.7,10.2l0.4,0.2l0,0l0.6-0.1l0.6-0.4l34.6-20.5l0.4-0.4l0.1-0.5v-34.6
	l-0.2-0.5l-0.5-0.1l0,0l-0.1,0.1L513.6,773.9z"/>
<path class="st0" d="M412.1,212.4l-5.2-10l-0.1-0.6l0.4-0.4l1.6-0.9l0.6-0.1l0.4,0.4l8.1,15.3l0.1,0.9l-0.5,0.8l-1,0.6l-1,0.2
	l-0.8-0.1l-0.8-0.4l-2.9-1.9l-2.8-2.1l-2.6-2.2l-2.4-2.4l0,0l0,0l-1.6-1.8l-0.2-0.5l0.1-0.5l0.2-0.3l0,0l0.4,0l0.5,0.2l4.6,2.9
	l4.4,3.2l0.9,0.4L412.1,212.4z"/>
<path class="st0" d="M627.5,219.5l0.4,8.2l-0.2,0.8l-0.8,0l-1-0.4l-0.8-0.6l-0.3-1l-0.2-6.2l-0.2-1l-0.4-0.8l0,0l-1-1l-1.4-0.7
	l-0.4,0l-0.3,0.3l-2.7,5.4l-0.5,0.5l-0.7-0.1l-1.1-0.6l-0.5-0.6l0.1-0.8l7.9-15.1l0.3-0.3l0.4,0.1l6.5,3.7l1.4,1l1.1,1.2l0.7,1.3
	l0.3,1.4l-0.3,1.8l-0.7,1.5l-1,1.1l0,0l0,0l-1.7,0.7L628,219l-0.4,0.1L627.5,219.5z M624.9,209.7l-2.2,3.9l-0.1,0.6l0.4,0.5l1.5,0.9
	l1.8,0.8l1.8,0.3l1.4-0.2l0.9-0.7l0,0l0.2-0.4l0.2-1.1l-0.5-1.4l-1.2-1.4l-1.6-1.2l-1.5-0.9l-0.6-0.1L624.9,209.7L624.9,209.7z"/>
<path class="st0" d="M395.5,221.4l1.9,2.8l0.4,0.3l0.4-0.1l4.3-2.4l0.3-0.1l0.4,0.2l1.1,1.4l0.1,0.5l-0.3,0.4l-7.5,4.2l-0.4,0.1
	l-0.5-0.3l-8.3-15.1l-0.1-0.4l0.3-0.4l8.3-4.7l0.5-0.1l0.4,0.3l0.9,1.9l0,0.4l-0.3,0.4l-5.4,3l-0.2,0.2l0,0.6l1.9,2.8l0.3,0.2l0.4,0
	l0.1,0l4.7-2.6l0.5-0.1l0.4,0.3l0.7,1.4l0.1,0.3l-0.3,0.5l-5,3.1l-0.3,0.4L395.5,221.4z"/>
<path class="st1" d="M624.9,209.7l0.3-0.3l0.8,0l1.5,0.9l1.6,1.2l1.2,1.4l0.5,1.4l-0.2,1.1l-0.2,0.4l0,0l-0.9,0.7l-1.4,0.2l-1.8-0.3
	l-1.8-0.8l-1.5-0.9l-0.4-0.5l0.1-0.6L624.9,209.7z"/>
<path class="st2" d="M554.6,239.7L538.4,250l-15.2,9.2l-0.9,0.9l-0.3,1.2l-0.1,12l-0.1,0.4l-0.3,0.3l-10.7,5.6l-0.9,0l-0.6-0.6
	l0-0.2l-0.3-7.3l-0.1-0.2l-0.5-0.4l-0.6,0.1l-7.8,6.3l-16.7-9.8l9.6-6.3l0.9-0.9l0.3-1.2l0.1-11.9l0-0.2l-0.4-0.5l-0.6,0l-22.8,13.5
	l-17-10l-0.1-0.2l0.1-0.3l58.7-33.9h0.4L554.6,239.7z"/>
<path class="st0" d="M645.4,217.8l2.2,1.3c0.1,0.1,0.2,0.2,0.1,0.4l-9.2,14.9c-0.1,0.1-0.2,0.2-0.4,0.1l-2.2-1.3
	c-0.1-0.1-0.2-0.2-0.1-0.4l9.2-14.9C645.2,217.7,645.3,217.7,645.4,217.8z"/>
<path class="st0" d="M368.8,231.1l2.8,4.9l2.6,5.4l0,0.3l-0.3,0.5l-1.8,0.9l-0.5,0.1l-0.4-0.3l-8.9-15.6l-0.1-0.5l0.2-0.5l0.9-0.8
	l1-0.3l1.3,0.2l14.1,7.1l0.3,0.1l-0.1-0.3l-6.6-12.2l-0.1-0.3l0.2-0.2l2.5-1.1l0.4,0l0.3,0.3l8.5,16.1l0.2,0.6l-0.1,0.4l0,0
	l-0.3,0.4l-0.5,0.2l-1.5,0.4l-0.5,0.1l-0.4-0.1l-5.9-2.7l-6.7-3.8l-0.7-0.3h-0.3l0,0v0.3L368.8,231.1z"/>
<path class="st0" d="M650.6,238.6l-2.5,1.6l-0.5,0l-1.4-0.8l-0.3-0.4l0.3-0.5l17.9-10.9l0.5,0l0.2,0.2l0.1,0.3l-2.4,20.3l-0.2,0.3
	l-0.5,0.1l-1.4-0.5l-0.3-0.5l-0.2-3.8l-0.3-0.4l-8.4-5H650.6z M654.4,236.9l-0.2,0.3l0.1,0.3l0,0l5.5,3.6l0.3,0l0.2-0.2l0-0.1l1-7.6
	l0-0.2l-0.2-0.2l-0.3,0L654.4,236.9z"/>
<path class="st0" d="M344.7,244.3l5.3,9.2l0.2,0.8l-0.6,0.6l-1.3,0.8l-0.8,0.2l-0.6-0.5l-8.3-14.6l-0.1-0.5l0.3-0.4l1.8-1l0.4,0
	l0.5,0.1l9.2,5.2l0.4,0.1l0.1-0.4l-0.8-9.9l0.1-0.4l0.3-0.3l1.7-1l0.4-0.1l0.3,0.3l4.7,8.3l3.6,7.2l0,0l0,0.7l-0.6,0.5l-0.3,0.1
	l-1,0.1l-0.8-0.7l-4.4-7.6l-0.5-0.7l-0.3-0.2l0,0l-0.2,0.3l0,0.8l0.1,5.9l-0.1,0.7l-0.5,0.3l-0.5,0.1l-0.5-0.1l-0.5-0.3l-3.5-2.5
	L345,244l-0.3,0L344.7,244.3z"/>
<path class="st1" d="M654.4,236.9l6.5-4h0.4l0.1,0.3l-1,7.6l-0.1,0.2h-0.4l-5.5-3.6l-0.1-0.2L654.4,236.9z"/>
<path class="st0" d="M678.6,248.9l-3.5,6.1l-0.2,0.2l-0.3,0l-1.8-1.2l-0.1-0.5l8.2-16l0.2-0.2l0.4,0l9.5,5.6l0.2,0.3l-0.1,0.3
	l-1.3,1.7l-0.2,0.1l-0.3,0l-6.4-3.9l-0.3,0l-0.2,0.2L680,246l0,0.4l0.1,0.1l6.1,3.4l0.2,0.4l-0.5,1.7l-0.2,0.2l-0.3,0l-6.3-3.4
	l-0.3,0L678.6,248.9z"/>
<path class="st3" d="M554.1,260l-3.7-2.7l-3.8-2.6l-4-2.4l-4.2-2.3l16.2-10.3l16.5,9.6l0.1,0.2l-0.1,0.2l0,0l0,0L554.1,260z"/>
<path class="st3" d="M483.4,267.4l-13-7.6l22.8-13.5l0.6,0l0.4,0.5l0,0.2l-0.1,11.9l-0.3,1.2l-0.9,0.9L483.4,267.4z"/>
<path class="st0" d="M323,247.6l2.1-1.1c0.3-0.2,0.7,0,0.9,0.3l8,15.5c0.2,0.3,0,0.7-0.3,0.9l-2.1,1.1c-0.3,0.2-0.7,0-0.9-0.3
	l-8-15.5C322.6,248.2,322.7,247.8,323,247.6z"/>
<path class="st0" d="M704.8,255.3l-6.8,13.1l-0.3,0.3l-0.5,0l-1.9-0.7l-0.4-0.4l0-0.5l7.1-13.3l0-0.6l-0.2-0.3l-3.4-2.2l-0.2-0.2
	v-0.6l0.7-1.2l0.4-0.3l0.5,0.1l11.8,6.8l0.2,0.2l0,0.6l-0.7,1.4l-0.2,0.2l-0.4,0.1l-0.4-0.1l-4.7-2.8l-0.5-0.1L704.8,255.3
	L704.8,255.3z"/>
<path class="st4" d="M538.4,250l4.2,2.3l4,2.4l3.8,2.6l3.7,2.7L513,283.7l-1.1,0.3l-1.1-0.3l-10.7-6.5l7.8-6.3l0.6-0.1l0.5,0.4l0,0
	l0.1,0.2l0.3,7.3l0,0.2l0.6,0.6l0.9,0l10.7-5.6l0.3-0.3l0.1-0.4l0.1-12l0.3-1.2l0.9-0.9L538.4,250z"/>
<path class="st0" d="M314,267.7l-5.9-10.3l-0.1-0.7l0.5-0.5l1.5-0.8l0.7-0.1l0.5,0.5l8.5,14.9l0.1,0.8l-0.4,0.6l-1.3,0.6l0,0l-1,0
	l-1.1-0.3l-5.3-2.6l-4.8-2.9l-1.1-0.6l-0.5,0l0,0l0,0.5l0.5,1.1l4.1,8.5l0.1,0.7l-0.5,0.5l-1,0.5l-0.8,0.1l-0.5-0.5l-5.9-11.6
	l-1.4-3.5l0-0.5l0.2-0.4l0.5-0.5l0.5-0.3h0.9l1.1,0.5l11.6,6.5l0.4,0.1L314,267.7z"/>
<path class="st2" d="M480.6,278.7l-20.8,12.2l-4.4-1.8l-3.9-2.1l-13-8l-0.4-0.1l-0.4,0.1l-8,4l-6.8,4l-2.3,1.7l-2.5,2.3l-17.8-10.8
	l0,0L400,280l0.1-0.2l42.2-24.1h0.2L480.6,278.7z"/>
<path class="st2" d="M604.3,268.7l-16.1,9.7l-0.3,0.4l0.1,0.5l0,0l0.2,0.3l19.1,11.5l-40.3,23.6l-0.7,0.2l-0.6-0.2l-18.9-11.2
	l18-10.8l0.2-0.1l0.3-0.8l-0.5-0.7l-20.3-12.6l36.8-22.4l0.5-0.1l0.5,0.1L604.3,268.7z"/>
<path class="st0" d="M287.6,276.5l4.6-2.9l0.5-0.1l0.4,0.3l1.4,1.9l0.1,0.4l-0.4,0.6l-5.2,2.4l-0.4,0.4l0,0.5l1.8,3.4l0.3,0.3
	l0.4,0.1l0.2-0.1l6.4-3.5l0.5-0.1l0.4,0.3l0.8,1.5l0.1,0.4l-0.3,0.5l-9.5,5.1l-0.5,0.1l-0.4-0.3l-8.1-15l-0.1-0.4l0.3-0.5l9.4-5.3
	l0.4-0.1l0.5,0.3l1,1.5l0.1,0.4l-0.3,0.5l-6.5,3.6l-0.3,0.4l0,0.5l1.4,2.6l0.4,0.3L287.6,276.5z"/>
<path class="st5" d="M607.2,291l-19.1-11.5l-0.3-0.4l0-0.4l0.3-0.3l16.1-9.7l20,11.5l0.1,0.1l0.1,0.3l-0.2,0.3L607.2,291z"/>
<path class="st0" d="M734.1,274.2l0.3,0.6l1.2,1.6l2.3,2.1l1.5,1.3l1.1,1.4l0,0l0.3,1.1l0.1,1.2l-0.2,1.3l-0.5,1.1l-1,1l-1.2,0.7
	l-1.5,0.4l-1.7,0l-1.5-0.2l-1.4-0.5l0,0l-1.6-1l-1.4-1.4l-1.2-1.8l-1.1-2.1l-0.1-0.9l0.4-0.8l0.5-0.2l0.9,0.1l0.6,0.7l1,1.7l1,1.4
	l1,1l1,0.7l1.4,0.5l1.3,0l0,0l1.1-0.6l0.6-0.6l0.3-0.8l-0.1-0.8l-0.4-0.7l-0.1-0.1l-3.9-3.8l-1.2-1.4l-0.7-1.5l-0.3-1.5l0.2-1.3
	l0.4-0.8l1.1-1.2l1.3-0.8l0,0l1.7-0.5l1.9,0.1l2,0.5l1.7,0.9l0,0l1.1,1l1,1.2l0.8,1.4l0.7,1.6l0.1,0.9l-0.3,1l-0.3,0.2l-0.6,0.1
	l-0.6-0.1l-0.4-0.5l-1.1-2l-1.2-1.5l-1.3-1l-1.4-0.6l0,0l0,0l-1.2-0.1l-1.3,0.2l-0.1,0l-0.6,0.4l-0.4,0.5l-0.1,0.7L734.1,274.2z"/>
<path class="st5" d="M544.4,278.2l20.3,12.6l0.5,0.7l-0.3,0.8l-0.2,0.1l-18,10.8L525,290.5l-0.1,0l-0.1-0.3l0.2-0.3L544.4,278.2z"/>
<path class="st0" d="M268.3,279.8l2.6-1.5c0.1-0.1,0.3,0,0.4,0.1l8.7,15c0.1,0.1,0,0.3-0.1,0.4l-2.6,1.5c-0.1,0.1-0.3,0-0.4-0.1
	l-8.7-15C268.1,280.1,268.1,279.9,268.3,279.8z"/>
<path class="st5" d="M459.7,290.9l-0.8,0.3l-0.3,0.4l0,0l0,0.2v0l0,0l0.2,0.4l0.5,0.4l9.3,5.3l9.2,5.8L459,315l-0.2,0.1l-0.5-0.1
	l-40.4-23.9l2.5-2.3l2.3-1.7l6.8-4l8-4l0.4-0.1l0.4,0.1l13,8l3.9,2.1L459.7,290.9z"/>
<path class="st3" d="M477.9,303.8l-9.2-5.8l-9.3-5.3l-0.5-0.4l-0.2-0.4l0,0v0l0-0.2l0,0l0.3-0.4l0.8-0.3l20.8-12.2l19,11.8l0,0
	l0,0.2L477.9,303.8z"/>
<path class="st0" d="M753.2,296l6.9,4.4l0.2,0.3l-0.1,0.3l-1,1.5l-0.3,0.2l-0.3,0l-9.6-5.7l-0.2-0.3l0-0.3L758,281l0.2-0.2l0.4,0
	l9.8,6l0.2,0.3l-0.1,0.4l-1,1.5l-0.3,0.2l-0.3-0.1l-7.2-4.3l-0.3-0.1l-0.3,0.2l-2,3.5v0l0,0.3l0.2,0.3l5.9,3.6l0.2,0.2l-0.1,0.4
	l-1,1.3l-0.1,0.1l-0.5,0l-5.8-3.4l-0.3-0.1l-0.3,0.2l-2.3,3.8l-0.1,0.2L753.2,296z"/>
<path class="st2" d="M689.1,339.7l-15.6-9.1l-11-6.6l-11.2-6.5L640,311l-11.5-6.2l0.1-21.4l0.1-0.4l0.4,0.1l56.2,31.8l3.3,2.2
	l0.3,0.4l0.1,0.4L689.1,339.7z"/>
<path class="st2" d="M381.4,358l-0.2-20.3l0-0.1l-0.2-0.2l-0.3,0l-31,16.9l0.1-22.9l0-0.1l-0.3-0.4l-0.5,0l-9.9,5.4l-0.1,0.1
	l-1.7,1.2l-1.6,1.6l0-22l0.2-0.6l0.5-0.4l54.9-31.2l3.6-1.8l0.1,0l0.3,0.1l0.1,0.3v65.8l-0.2,0.6l-0.4,0.4L381.4,358z"/>
<path class="st0" d="M265,298.6l-6.3,4.6l-0.2,0.4l0.4,3.5l-0.1,0.2l-0.2,0.2l-2.4,1l-0.4,0l-0.2-0.3l-3.5-20.8l0.2-0.4l0.5,0
	l18,10.7l0.2,0.3l-0.1,0.4l-2.1,1.9l-0.2,0.1l-0.3-0.1l-2.7-1.7L265,298.6z M260.3,298.6l2-1.4l0-0.1l0.1-0.3l-0.2-0.3l-6-4.1
	l-0.1,0l0,0l0,0l0,0l1.5,7.1l0.2,0.3l0.4,0l0.1,0L260.3,298.6z"/>
<path class="st1" d="M256.2,292.4L256.2,292.4l0.1,0l6,4.1l0.2,0.3l-0.1,0.3l0,0.1l-2,1.4l-2.1,1.3l-0.1,0l-0.4,0l-0.2-0.3
	L256.2,292.4L256.2,292.4L256.2,292.4z"/>
<path class="st0" d="M779,294.9l2.2,1.7c0.1,0.1,0.1,0.3,0,0.4L770.9,310c-0.1,0.1-0.3,0.1-0.4,0l-2.2-1.7c-0.1-0.1-0.1-0.3,0-0.4
	l10.3-13.1C778.7,294.8,778.9,294.8,779,294.9z"/>
<path class="st2" d="M511.7,346l-41.4-24.2l-0.3-0.6l0.3-0.6l41.5-24h0.7l41.4,24.2l0.3,0.6l-0.3,0.6l-41.5,24H511.7z M531.7,333.1
	l-0.1-0.4L491.8,310l-0.4,0.1l0,0l0.1,0.4l39.8,22.7L531.7,333.1L531.7,333.1z"/>
<path class="st0" d="M235.6,308.7l10.3,10.1l0.1,0.6l-0.1,0.1l-1.4,1.7l-0.4,0.2l-0.4-0.2l-10.5-9.9l-0.5-0.1l-0.3,0.2l-3.2,3.4
	l-0.5,0.2l-0.2-0.1l-1.6-1.2l-0.2-0.3l0-0.4l0.1-0.1l9.9-11.1l0.4-0.2l0.4,0.2l1.6,2l0.1,0.3l-0.2,0.4l-3.5,3.2l0,0l-0.1,0.4
	L235.6,308.7z"/>
<path class="st0" d="M786.6,317.9l0.2,0.3h0.1l11.9-2l0.8,0.1l0.6,0.5l0.6,1l0.1,0.6l-0.6,0.3l-18.7,3.1l-0.6-0.2l-0.2-0.6l0.1-0.2
	l0.9-1.2l1.7-2.5l2.8-6.6l2.1-6.4l0.3-0.4l0.4,0.1l1.8,1.4l0.2,0.4l0,0.5L786.6,317.9z"/>
<path class="st5" d="M673.5,330.5l-0.1,23.5l-42.8-24.4l-0.4-0.1l-0.4,0.1l-0.5,0.2l-0.4,0l-0.3-0.3l0-24.7L640,311l11.3,6.4
	l11.2,6.5L673.5,330.5z"/>
<path class="st4" d="M491.8,310l39.8,22.7c0.1,0.1,0.2,0.3,0.1,0.4l0,0c-0.1,0.1-0.3,0.2-0.4,0.1l-39.8-22.7
	c-0.1-0.1-0.2-0.3-0.1-0.4l0,0C491.4,309.9,491.6,309.9,491.8,310z"/>
<path class="st6" d="M609.8,454.4l-1.7-1.2l-1.7-1.2l-8.8-5l-8.6-5.1l-0.5-0.5l-0.2-0.6l-0.2-3.5l0.2-88l0-0.2l-0.4-0.4l-0.5,0
	l-74.2,42.9l-0.9,0.2l-0.9-0.2l-75.2-43.4l-0.7-0.1l-0.2,0.7v91.1l-0.3,1.3L434,442l-19.8,11.4l0.1-142.2l0.2-0.2l0,0l97,54.9
	l0.8,0.2l0.8-0.2l96.4-55l0.3-0.1l0.1,0.2L609.8,454.4z"/>
<path class="st0" d="M225.6,337.3l1.1,6.4l0.2,0.5l0.4,0.4l2.8,1.4l0.4,0.4l0,0.6l-1.2,2.5l-0.3,0.3l-0.5-0.1l-16.2-7.9l-0.4-0.4
	l-0.1-0.5l0.8-2.5l1-2.1l1.3-1.6l1.5-1.1l0,0l0,0l0,0l1.8-0.7l2.1-0.2l2.3,0.2l2.6,0.7l2.2,0.4l2.7-0.2l0.3-0.1l-0.2-0.3l-9.8-7.8
	l-0.4-0.5l0.2-0.6l1.1-1.3l0.6-0.4l0.7,0.3l6.6,5.3l7.1,5l0.3,0.3l0,0.4l-1.2,1.7l-0.1,0l0,0l-0.7,0.4l-1.1,0.1l-7.5,0.5l-0.4,0.2
	L225.6,337.3z M223.6,342.5l-1.2-4.9l-0.4-0.7l-0.6-0.5l-1.4-0.4l-1.2,0.1l-0.9,0.4l-0.8,0.7l-0.7,0.9l-0.5,1.1l0,0.5l0.4,0.3
	l6.6,3.2l0.8,0.1L223.6,342.5z"/>
<path class="st2" d="M323.5,345.9l-13,6.7l-0.6,0.6l-0.2,0.9l0.2,21.5l-38.1,21.7l0.1-44.1l0.2-0.7l0.5-0.5l50.4-28.8l0.3,0l0.2,0.2
	l0,0.1L323.5,345.9z"/>
<path class="st2" d="M751.4,374.2l-2.3-1.6l-2.2-1.6l-6.1-3.3l-17.6-9.8l-17.5-10l-1.6-0.6l-2.4-0.5v-22.3l0.2-0.3l0.3-0.1l0.1,0
	l48.5,27.4l0.4,0.4l0.2,0.6L751.4,374.2z"/>
<path class="st3" d="M673.5,354l-0.2,21.4l-44.1-25.2l-0.3-0.3l-0.1-0.5l-0.1-20l0.3,0.3l0.4,0l0.5-0.2l0.4-0.1l0.4,0.1L673.5,354z"
	/>
<path class="st4" d="M673.5,330.5l15.6,9.1l-0.1,43.6l-0.2,0.5l-0.5-0.1l-15.1-8.3l0.2-21.4L673.5,330.5z"/>
<path class="st3" d="M349.8,354.3l0.3,21.5l-13.9,7.4l-0.3,0.1l-0.1-0.3l0-43.7l1.6-1.6l1.7-1.2l0.1-0.1l9.9-5.4l0.5,0l0.3,0.4
	l0,0.1L349.8,354.3z"/>
<path class="st0" d="M800.8,333.4l1.8-0.8l1.7-0.2l0,0l0,0l0,0l1,0.2l1,0.4l1.9,1.4l0.9,1l1.2,2.1l0.5,2.3l-0.2,2.4l-0.9,2.3
	l-0.7,1.1l-1.3,1.4l-1.6,1.3l-1.8,1l-1.9,0.8l-1.7,0.4l-1.7,0.1l-1.5-0.2l-1.4-0.5l-0.3-0.2l-1.5-1.2l-1.1-1.4l-0.6-1.3l-0.4-1.3
	l-0.1-1.5l0.2-1.5l0.4-1.4l0.7-1.3l0.8-1.1l1.1-1l0.3-0.2l3.1-1.8L800.8,333.4z M807.2,337.6l-0.7-0.7l-0.9-0.5l-1-0.3l-1.1-0.1
	l-1.2,0.2l-1.3,0.4l-2.4,1.3l-2,1.9l-0.7,1.1l-0.5,1.1l-0.3,1.1l0,1.1l0.2,1l0.4,0.8l0.7,0.7l0.9,0.5l1,0.3l1.1,0.1l1.2-0.2l1.3-0.4
	l2.4-1.3l2-1.9l0.7-1.1l0.5-1.1l0.3-1.1l0-1.1l-0.2-1L807.2,337.6z"/>
<ellipse transform="matrix(0.81 -0.5864 0.5864 0.81 -48.1584 534.8625)" class="st1" cx="801.4" cy="341.8" rx="7.1" ry="4.8"/>
<path class="st1" d="M222.7,343.2l-6.6-3.2l-0.4-0.3l0-0.5l0.5-1.1l0.7-0.9l0.8-0.7l0.9-0.4l1.2-0.1l1.4,0.4l0.6,0.5l0.4,0.7
	l1.2,4.9l-0.1,0.8L222.7,343.2z"/>
<path class="st4" d="M381.4,358l-31.3,17.8l-0.3-21.5l31-16.9l0.3,0l0.2,0.2l0,0.1L381.4,358z"/>
<path class="st3" d="M323.5,345.9l0.1,23.1l-13.8,6.5l-0.2-21.5l0.2-0.9l0.6-0.6L323.5,345.9z"/>
<path class="st5" d="M751.4,374.2l0,20.3l-0.2,0.8l-0.3,0.6l-0.3,0.2l-0.4-0.1l-2-1.5l-42.8-23.7l-1.6-0.6l-1.5-0.1l0,0l-0.5,0.1
	l0-23.4l2.4,0.5l1.6,0.6l17.5,10l17.6,9.8l6.1,3.3l2.2,1.6L751.4,374.2z"/>
<path class="st7" d="M609.8,454.4l0,23.9l-0.2,0.6l-0.7-0.1l-39.7-22.4l-0.4-0.4l-0.2-0.6V383l-0.1-0.3l-0.3,0.1l-55.9,31.9
	l-0.5,0.1l-0.5-0.1L454.6,382l-0.2,0l-0.2,0.2l0,0.1v73.3l-0.3,1.1l-0.8,0.8l-38.2,21.8l-0.1,0.1l-0.4-0.1l-0.2-0.4l0-25.3L434,442
	l0.9-0.9l0.3-1.3v-91.1l0.2-0.7l0.7,0.1l75.2,43.4l0.9,0.2l0.9-0.2l74.2-42.9l0.5,0l0.4,0.4l0,0.2l-0.2,88l0.2,3.5l0.2,0.6l0.5,0.5
	l8.6,5.1l8.8,5l1.7,1.2L609.8,454.4z"/>
<path class="st0" d="M219,360.5l2.6,0.9l3,0.4l0.2,0.1l0,0.2l-0.9,3.6l-0.1,0.1l-0.1,0l-18.7-5.1l-0.6-0.5l0-0.7l0,0l0-0.1l0.2-0.3
	l0,0l1.1-1.3l1.5-1.1l5.8-2.8l6.4-2.4l0.2,0l0.6,0.3l0.1,0.6l-1.9,7.3l0,0.5L219,360.5z M215.3,360.3l0.1-0.1l0.8-3.7l-0.1-0.4
	l-0.4,0l-5.8,2.6l-0.3,0.3l0.4,0.2L215.3,360.3z"/>
<path class="st0" d="M813.6,358.4l-0.4-1.5l0-0.3l0.4-0.4l2.1-0.5l0.4,0l0.3,0.4l1.8,8.7l-0.1,0.4l-0.5,0.3l-2,0l-0.2,0l-0.3-0.4
	l-0.7-2.5l-0.3-0.4l-0.4-0.1l-14.4,3.3l-0.3,0l-0.4-0.4l-0.6-1.5v-0.4l0.4-0.4l14.7-3.7l0.3-0.2l0.1-0.4L813.6,358.4z"/>
<path class="st1" d="M215.3,360.3l-5.3-1.1l-0.4-0.2l0.3-0.3l5.8-2.6l0.4,0l0.1,0.4l-0.8,3.7L215.3,360.3z"/>
<path class="st2" d="M394.9,398.2L369,383.6l-0.2-0.4l0.2-0.4h0l25.9-14.7l0.4,0l0.2,0.4v29.3l-0.1,0.3L394.9,398.2z"/>
<path class="st2" d="M628.4,398.7l-0.1-29.9l0.2-0.4h0.5l25.9,14.9l0.2,0.4l-0.2,0.4l0,0l-25.8,15h-0.5L628.4,398.7z"/>
<path class="st4" d="M323.6,368.9l0,19.6l-0.2,0.7l-0.5,0.5l-50.5,28.8l-0.1,0l-0.3-0.1l-0.1-0.3l-0.1-21.1l38.1-21.7L323.6,368.9z"
	/>
<path class="st3" d="M751.4,394.5l0,23.2l-0.1,0.3L751,418l0,0l-0.1,0l-48.4-27.4l-0.5-0.5l-0.2-0.7l-0.1-19.5l0.5-0.1l0,0l1.5,0.1
	l1.6,0.6l42.8,23.7l2,1.5l0.4,0.1l0.3-0.2l0.3-0.6L751.4,394.5z"/>
<path class="st0" d="M212.8,384.8l0-6.9l0.2-0.5l0.5-0.2l0.1,0l1.9,0.1l0.4,0.2l0.3,0.5l0.1,7l0.2,0.5l0.5,0.2l4.1,0.1l0.5,0.2
	l0.2,0.5l0,2.1l-0.1,0.4l-0.6,0.3l-17.7-0.3l-0.5-0.2l-0.2-0.5l0.1-11.1l0.1-0.4l0.6-0.3l1.9,0.1l0.4,0.2l0.3,0.6l-0.1,7.3l0,0.1
	l0.2,0.4l0.5,0.2l5.4,0.1l0.5-0.2L212.8,384.8L212.8,384.8L212.8,384.8z"/>
<path class="st0" d="M816.2,385.5l0.3-0.3l-0.4-0.1l-15.3-0.9l-0.3-0.1l-0.1-0.3l0.1-1.8l0.1-0.3l0.4-0.1l18.6,1.1l0.4,0.2l0.1,0.4
	v3.1l-0.1,0.5l-0.4,0.4l-14,7.6l0,0l-0.4,0.1l-0.4-0.1l-0.7-0.7l0-0.4l0.2-0.7l0.4-0.6l0.6-0.5L816.2,385.5z"/>
<path class="st2" d="M395.4,460.5l-14.7-8.3l-0.6-0.5l-0.2-0.8v-19.7l-0.2-0.9l-0.6-0.6L335,403.8l-1.7-1.4l17.4-10.1l0.6-0.2
	l0.6,0.2l42.5,24l0.7,0.7l0.3,1L395.4,460.5z"/>
<path class="st2" d="M691.1,403.1l-47.2,27.5l-15.7,8.6l0.2-21.3l0.1-0.5l0.4-0.4l42.9-24.5l0.2-0.1l0.7,0.1L691.1,403.1z"/>
<path class="st0" d="M816.9,408.1l-15.9-5.5l-0.1-0.1l-0.1-0.2l-0.3-2.8l0.1-0.3l0.4-0.1l19.3,7.4l0.2,0.3l-0.1,3.7l-0.2,0.3
	l-19,6.1l-0.3,0l-0.1-0.3l-0.1-2.3l0-0.2l0.2-0.1l16.1-5.3l0.1-0.1l0.1-0.3L816.9,408.1z"/>
<path class="st3" d="M333.3,402.4l1.7,1.4l-0.4,20.8l-10.1-5.2l-10-6L333.3,402.4z"/>
<path class="st4" d="M708.7,413.3l-9,6.4l-9.2,5.7l-0.9,0.8l-0.2,0.8l0.5,0.6l4.2,2.3l4.5,2.5l3.2,1.9l2.8,2l2.6,2.1l-18,10.5
	l-0.1-21.2l-0.1-0.5l-0.2-0.3l-0.3,0l-0.5,0.2l-18,10.5l-18.3,10.2l-3,1.8l-2.3,1.8l-1.7,1.7l-1,1.7l0.1-24.2l47.2-27.5L708.7,413.3
	z"/>
<path class="st0" d="M210.3,413l-0.1-5.7l0.1-0.4l0.5-0.3l1.9,0.1l0.2,0l0.4,0.6l0,5.5l0.1,0.4l0.4,0.2l0,0l0.1,0l3.8,0.1l0.4-0.2
	l0.2-0.4l-0.1-8.3l0.2-0.5l0.4-0.2h2l0.2,0l0.3,0.2l0.1,0.4l0.1,11.6l-0.2,0.4l-0.4,0.2l-18.2,0.1l-0.4-0.1l-0.2-0.5v-10.2l0.1-0.4
	l0.3-0.2l0.1,0l2.1-0.1l0.4,0.2l0.2,0.4l0,6.8l0.2,0.4l0.4,0.2l3.5,0l0.4-0.2L210.3,413z"/>
<path class="st5" d="M395.4,460.5l0.1,22.2l-0.1,0.4l-0.5-0.1l-15.4-9l0.4-21.6l-0.2-0.7l-0.5-0.5l-42.4-24.5l-0.3-0.1l-0.5,0
	l-0.5,0.2l-0.3,0.4l-0.1,0.5l-0.1,20.7l-17.9-10.3l15.7-9.6l1.1-0.8l1.2-1.2l0.2-0.4l0-0.5l-0.7-1.1l0.4-20.8l44.1,25.9l0.6,0.6
	l0.2,0.9v19.7l0.2,0.8l0.6,0.5L395.4,460.5z"/>
<path class="st5" d="M511.7,434.3l0,66.4l-18.8,0l-0.3-55.7l-0.2-0.6l-0.5-0.5l-21.6-11.6l0.1-20.3l0.1-0.6l0.2-0.3l0,0l0.4,0
	l0.5,0.2L511.7,434.3z"/>
<path class="st8" d="M551.7,431.9l-1,0.8l-1.5,0.7l-2.6,1.1l-16.4,9.6l-0.9,0.6l-0.6,0.7l-0.6,1.7l-0.1,2.5l0,1.1l0,50l-16.3-0.1
	l0-66.4l39-22.6l0.7-0.1l0.2,0.7L551.7,431.9z"/>
<path class="st2" d="M314.5,413.3l10,6l10.1,5.2l0.7,1.1l0,0.5l-0.2,0.4l-1.2,1.2l-1.1,0.8l-15.7,9.6l-22-12.8l-0.2-0.3l0.1-0.4
	l0.1-0.1L314.5,413.3z"/>
<path class="st3" d="M707.4,438.3l-2.6-2.1l-2.8-2l-3.2-1.9l-4.5-2.5l-4.2-2.3l-0.5-0.6l0.2-0.8l0.9-0.8l9.2-5.7l9-6.4l20.7,11.7
	l0.2,0.3l-0.2,0.3L707.4,438.3z"/>
<path class="st4" d="M379.6,474.1L335,448.5l0.1-20.7l0.1-0.5l0.3-0.4l0.5-0.2l0.5,0l0,0l0.3,0.1l42.4,24.5l0.5,0.5l0.2,0.7
	L379.6,474.1z"/>
<path class="st8" d="M689.3,448.8l-44.8,25.8l-0.6-3.1l-0.2-3.6l0.1-13.3l1-1.7l1.7-1.7l2.3-1.8l3-1.8l18.3-10.2l18-10.5l0.5-0.2
	l0.3,0l0,0l0.2,0.3l0.1,0.5L689.3,448.8z"/>
<path class="st0" d="M808.9,432.4l-5,0l-0.4,0.2l-0.1,0.4l0.1,10.1l-0.2,0.4l-0.4,0.2l-1.9,0l-0.4-0.2l-0.1-0.4l-0.1-13.2l0.2-0.4
	l0.4-0.2l18.9,0l0.4,0.2l0.2,0.4l-0.2,13.1l-0.1,0.3l-0.4,0.2l-1.6,0l-0.4-0.1l-0.2-0.4l0-9.9v-0.1l-0.2-0.3l-0.4-0.1l-4.4-0.1
	l-0.4,0.2l-0.2,0.4l0.1,9.9l-0.1,0.3l-0.4,0.2l-1.6,0l-0.4-0.2l-0.2-0.4l0-9.9l-0.2-0.4L808.9,432.4z"/>
<path class="st3" d="M643.9,430.6l-0.1,24.2l-0.1,13.3l0.2,3.6l0.6,3.1l-15.8,9l-0.1,0l-0.3-0.1l-0.1-0.3l-0.1-44.2L643.9,430.6z"/>
<path class="st2" d="M286.7,439.5l0.2,19.6l-15.1-8.1l0-18.8l0.2-0.6l0.6,0.1L286.7,439.5z"/>
<path class="st9" d="M551.7,431.9l0.3,68.3l-0.1,0.4l-0.5,0.2l-23.4,0l0-50l0-1.1l0.1-2.5l0.6-1.7l0.6-0.7l0.9-0.6l16.4-9.6l2.6-1.1
	l1.5-0.7L551.7,431.9z"/>
<path class="st8" d="M751.5,453.9l-15.4,6.4l-0.2-19.7l15-8.5l0.3,0l0.2,0.2l0,0.1L751.5,453.9z"/>
<path class="st4" d="M492.9,500.8l-22.1-0.1l-0.3-0.1l-0.1-0.3l-0.1-67.8l21.6,11.6l0.5,0.5l0.2,0.6L492.9,500.8z"/>
<path class="st0" d="M221.6,449.2l-0.2,0.5l-0.5,0.2l-18,0l-0.5-0.2l-0.2-0.5l0-15.2l0.2-0.5l0.5-0.2l18,0l0.5,0.2l0.2,0.5
	L221.6,449.2z M218.4,437l-0.1-0.3l-0.3-0.1l-5.2,0l-0.3,0.1l-0.1,0.3l0,9l0.1,0.3l0.3,0.1l5.2,0l0.3-0.1l0.1-0.3L218.4,437z
	 M209.4,437.2l-0.1-0.3l-0.3-0.1l-3.2,0l-0.3,0.1l-0.1,0.3l0.1,8.8l0.1,0.3l0.3,0.1l3.2,0l0.3-0.1l0.1-0.3L209.4,437.2z"/>
<path class="st5" d="M307.1,450.8v50.9l-20.1,0.2l-0.1-42.7l-0.2-19.6L307.1,450.8z"/>
<path class="st4" d="M735.9,440.6l0.2,19.7l-0.1,41.4l-18.6-0.2l0-50.3L735.9,440.6z"/>
<path class="st4" d="M307.1,501.7v-50.9l15.1,8.6l0.7,0.7l0.3,1v40l-0.1,0.4l-0.4,0.1L307.1,501.7z"/>
<path class="st4" d="M286.9,459.2l0.1,42.7l-14.8,0.2l-0.2-0.1l-0.1-0.2l0,0l-0.1-50.8L286.9,459.2z"/>
<path class="st3" d="M717.5,451.2l0,50.3l-16.1-0.1l-0.3-0.1L701,501v-39.8l0.1-0.5l0.4-0.4L717.5,451.2z"/>
<path class="st9" d="M751.5,453.9l0.1,47.4l-0.2,0.5l-0.5,0.2h0l-14.8-0.3l0.1-41.4L751.5,453.9z"/>
<path class="st0" d="M805.5,470.1l14.5,3l0.2,0.1l0,0.2l-0.2,2.5l-0.1,0.2l-0.2,0l-17.9-4l-1.1-0.5l-0.4-0.9l0.3-0.9l1.2-1.3
	l1.5-1.1l12.4-7.9l0.6-0.5l0.2-0.4l-0.3-0.2l-0.8-0.1H801l-0.5-0.2l-0.2-0.5l0-1.6l0.2-0.5l0.5-0.2h18.7l0.4,0.1l0.1,0.4l-0.2,4
	l-0.3,0.6l-14.2,8.9l-0.3,0.4L805.5,470.1z"/>
<path class="st0" d="M211,469.8l-5.7-1.7l-2.5-0.9l-0.7-0.5l-0.2-0.5l0,0l0,0l0,0l0.2-0.5l0.6-0.5l2.5-1l16.1-5.6l0.2,0l0.1,0.2v3.6
	l-0.1,0.2l-0.2,0.1l-9,2.8l-0.8,0.3l-0.2,0.3l0.3,0.3l0.8,0.3l2.2,0.8l1.9,0.9l0.2,0.1l0.3,0.4l0.1,0.5l-0.1,0.5l-0.3,0.4l-2.7,1.8
	l-3.5,1.7l-0.7,0.4l0.8,0.2l4.7,0l5.8-0.2l0.3,0.1l0.1,0.2v3l-0.1,0.3l-0.3,0.1h-18.3l-0.3-0.1l-0.1-0.3v-2.5l0.3-0.5l8.7-4.6
	l0.2-0.2L211,469.8z"/>
<path class="st3" d="M356.3,500.9l-4.4-3.5l-4.6-2.9l-4.7-2.3l-4.9-1.8l-0.1-20.6l0-0.1l0.2-0.2l0.3,0l53.5,30.2l0.3,0.3l-0.4,0.1
	l-17.9,0.7L356.3,500.9z"/>
<path class="st8" d="M685.6,501.1l-51.8-0.3l-0.3-0.2l0.1-0.4l51.8-30.2l0.3,0l0.2,0.3l0,30.6L685.6,501.1z"/>
<path class="st8" d="M569.7,476.2l39.9,23l0.3,0.3l0.1,0.4l-0.1,0.4l-0.3,0.3l-0.4,0.1l-39.8,0.2l-0.6-0.2l-0.2-0.6l-0.1-23.1
	l0.3-0.6l0.5-0.2L569.7,476.2z"/>
<path class="st8" d="M435.7,500.8l-0.6-13.4l18.6-10.7l0.1,0l0.3,0.1l0.1,0.3v23.2l-0.2,0.4l-0.4,0.2L435.7,500.8z"/>
<path class="st9" d="M435.1,487.4l0.6,13.4l-20.7-0.2l-0.4-0.1l-0.2-0.3l0-0.4l0.6-0.7L435.1,487.4z"/>
<path class="st4" d="M356.3,500.9l-18.2,0.4l0,0l-0.3-0.1l-0.1-0.3l0.1-10.4l4.9,1.8l4.7,2.3l4.6,2.9L356.3,500.9z"/>
<path class="st6" d="M451.8,522.7l0.3,0.1l0.1,0.3l0.1,99.6v0.5l-0.2,5.8l-0.3,2l-0.5,1.8l-0.6,1.5l-0.9,1.6l-1.2,1.4l0,0l-1.8,1.4
	l-2.2,1l-2.6,0.6l-3,0.2l-31.3,0.6l-30.6,0.8l-0.2-0.1l-0.1-0.2l-0.1-37L377,533l0.1-2l0.4-1.7l0.6-1.5l0.9-1.3l0,0l0,0l0.9-0.9
	l1.1-0.8l1.6-0.8l1.9-0.6l2.2-0.4l2.5-0.1L451.8,522.7z M402.7,616.8l0.1,0.3l0.3,0.1l19.2-0.1l1.8-0.3l1.3-0.8l0,0l0.6-0.7l0.4-0.9
	l0.3-2.2l0-63.5l-0.1-0.3l-0.3-0.1h-23.3l-0.3,0.1l-0.1,0.3V616.8z"/>
<path class="st6" d="M499.3,595.4l0,20.6l0.1,0.3l0.3,0.1l44.2,0l0.3,0.1l0.1,0.3l0.1,23.3l-0.1,0.3l-0.3,0.1l-70.7,0.1l-0.2,0
	l-0.2-0.4l-0.1-117.1l0.1-0.3l0.3-0.1l69.9,0l0.3,0.1l0.1,0.3l0,24.5l-0.1,0.3l-0.3,0.1h0l-43.4,0.1h0l-0.3,0.1l-0.1,0.3l0,21.6
	l0.2,0.3l0.2,0.1h37.5l0.3,0.1l0.1,0.3l0,23.5l-0.1,0.2l-0.4,0.2l-37.6,0l-0.3,0.1L499.3,595.4z"/>
<path class="st6" d="M612.3,606.7l-23.3-0.6h0l-0.3,0.1l-0.1,0.3l0.1,34.3l0,0.2l-0.4,0.2l-24.6-0.5l-0.2-0.1l-0.1-0.3L563.2,523
	l0.1-0.3l0.3-0.1l73.7,0.3l0.2,0.1l0.1,0.3l0.2,119l-0.1,0.3l-0.3,0.1l-24.4-0.8h0l-0.3-0.4l-0.1-34.5l-0.1-0.3L612.3,606.7z
	 M612.6,548.3l-0.1-0.3l-0.3-0.1H589l-0.3,0.1l-0.1,0.3V581l0.1,0.3l0.3,0.1h23.1l0.3-0.1l0.1-0.3V548.3z"/>
<path class="st6" d="M711,621.5l18.5,1.2l0.3,0.3v0l0.3,23.6l0,0.2l-0.3,0.2l-60-3.5l-0.2-0.1l-0.2-0.3l0-24l0.1-0.2l0.3-0.1
	l15.2,0.8l0.3-0.1l0.1-0.3l-0.1-70l-0.1-0.2L685,549l-27.4-0.3l-0.2-0.1l-0.2-0.3l-0.1-24.8l0.1-0.3l0.3-0.1l82.6,0.8l0.1,0l0.3,0.4
	l0,25.7l-0.1,0.3l-0.3,0.1l-29.2-0.6h-0.1l-0.3,0.4l0.1,71L711,621.5z"/>
<path class="st6" d="M305.2,595.1l-0.5-0.5l-0.2,0.7v49.8l-0.2,0.3l-25.7,2.1l-0.5-0.2l-0.2-0.5v0V524l0.1-0.2l0.3-0.2l66.1-0.2
	l3.2,0.3l2.9,0.9l2.5,1.5l1.8,2l0.8,1.3l0.6,1.5l0.4,1.6l0.1,1.8l0.1,52.5l-0.7,4.8l-0.8,2.3l-1.2,1.8l-1.4,1.2l-1.6,0.9l-2,0.7
	l-2.5,0.5l-4.1,0.4l-4.7,0l-0.1,0l-0.3,0.3l0,0.4l11.8,18.9l0.8,0.6l1,0l1.9-0.5l1.9-0.3l1.1,0l0.4,0.1l0.1,0.4v23.1l-0.1,0.4
	l-0.4,0.1l-26.9,1.1l-0.5-0.2l-0.2-0.5l0,0v0v-12.9l-0.1-0.6l-0.3-0.5L305.2,595.1z M304.6,549.7v27.7l0.2,0.5l0.4,0.1l21.1-0.7
	l2-0.4l1.5-0.9l0,0l0,0l0.6-0.8l0.4-1l0.4-2.4l0-18.9l-0.3-2l-0.3-0.7l-0.5-0.5l0,0l0,0l-0.2-0.1l-1.1-0.5l-1.4-0.3l-3.4-0.2
	l-18.4,0.2l-0.6,0.2L304.6,549.7z"/>
<path class="st6" d="M766.8,575.3l0.1-0.1v0v-23.6l-0.2-0.5l-0.5-0.2l-7.8-0.1l-0.5-0.2l-0.2-0.5l-0.1-25.7l0.1-0.3l0.5-0.2l4.3,0
	l40.1,0.6l26.4,0.6l2.6,0.2l2.2,0.6l1.9,0.9l1.6,1.2l0,0l0,0l0,0l1.3,1.7l1,2l0.6,2.4l0.2,2.8l0.2,39.9v0l-0.2,0.2l-22.8-1.3
	l-0.4-0.2l-0.1-0.4v-21.8l-0.3-0.7l-0.7-0.3l-23.5-0.2l0,0v29.4l0.1,0.5l0.4,0.2l21.3,2.5l0.4,0.2l0.2,0.4v26.7v0l-0.1,0.2l-0.3,0.1
	l-21.5-4.4l-0.3,0.1l-0.2,0.3l0,0v0v15.9l0.2,0.5l0.5,0.2l23.3,1.3l0.5-0.1l0.2-0.5l0.1-2.2l0.2-0.5l0.5-0.1l21.7,1.9l0.4,0.2
	l0.2,0.4l0.2,11.7l-0.3,9.9l-0.5,2.7l-0.5,1.1l-0.7,0.9l-1.7,1.3l-2.3,0.8l-3.4,0.5l-2.9,0l-71.5-5.7l-0.4-0.2l-0.2-0.4v-25.3
	l0.1-0.3l0.4-0.1l9.6,0.6l0.3-0.1l0.1-0.3v-21.8l-0.1-0.4l-0.3-0.2l-4.3-1.7l-3.9-2.1l-0.3-0.4l-0.1-0.4v-22.2l0.1-0.4l0.4,0
	L766.8,575.3z"/>
<path class="st6" d="M232.5,551.7l-23.2,1l-0.4,0.2l-0.2,0.4v72.7l0.1,0.3l0.3,0.1h0l49.5-4.1h0l0.3,0.1l0.1,0.3v25.5l-0.2,0.5
	l-0.5,0.2l-30.7,2.7l-30.8,3l-3.3,0.1l-2.9-0.5l-2.6-1.1l-2.1-1.6L185,650l-0.9-1.9l-0.5-1.6l-0.3-2.1l-0.3-5.6l-0.1-95.2l0.5-7.7
	l0.4-2.3l0.8-2.1l1.1-1.9l1.5-1.6l1.8-1.3l2.2-0.9l3.7-0.7l4.9-0.3l47.7-0.5l2.6,0.1l2.2,0.5l1.9,0.8l1.6,1.2l0,0l1.2,1.5l0.9,1.9
	l0.5,2.3l0.2,2.6l0,33.1l-0.1,0.4l-0.4,0.1l-24.6,1l-0.3-0.1l-0.1-0.3v-17.2l-0.2-0.5L232.5,551.7z"/>
<path class="st0" d="M589,547.9h23.1c0.2,0,0.5,0.2,0.5,0.5V581c0,0.2-0.2,0.5-0.5,0.5H589c-0.2,0-0.5-0.2-0.5-0.5v-32.6
	C588.6,548.1,588.8,547.9,589,547.9z"/>
<path class="st0" d="M402.7,616.8v-68l0.1-0.3l0.3-0.1h23.3l0.3,0.1l0.1,0.3l0,63.5l-0.3,2.2l-0.4,0.9l-0.6,0.7l0,0l-1.3,0.8
	l-1.8,0.3l-19.2,0.1l-0.3-0.1L402.7,616.8L402.7,616.8L402.7,616.8z"/>
<path class="st0" d="M304.6,549.7l0.2-0.7l0.6-0.2l18.4-0.2l3.4,0.2l1.4,0.3l1.1,0.5l0.2,0.1l0,0l0,0l0.5,0.5l0.3,0.7l0.3,2l0,18.9
	l-0.4,2.4l-0.4,1l-0.6,0.8l0,0l0,0l-1.5,0.9l-2,0.4l-21.1,0.7l-0.4-0.1l-0.2-0.5V549.7z"/>
<path class="st6" d="M602.7,682.5l0,1.1l0.2,3.8l0.3,1.4l0.5,1.1l0,0.1l0.6,0.6l0.8,0.4l1,0.2h1l1-0.2l0.9-0.4l0.7-0.6l0.5-0.7
	l0.1-0.3l0.2-1.5l0.2-0.6l0.6-0.2l5.3,0.1l0.5,0.1l0.1,0.5l-0.3,1.8l-0.5,1.6l-0.7,1.4l-0.9,1.1l0,0l0,0l-1,0.8l-1.2,0.7l-2.8,0.9
	l-3.3,0.3l-3-0.4l-1.4-0.4l-1.3-0.6l-1.1-0.8l-0.9-0.9l-1-1.6l-0.7-1.9l-0.4-2.8l-0.1-3.9l0.1-3.9l0.4-2.8l0.7-1.9l1-1.6l0.9-0.9
	l1.1-0.8l1.3-0.6l1.4-0.5l3-0.4l3.3,0.3l2.8,0.9l1.2,0.7l1,0.8l0,0l0.9,1.1l0.7,1.4l0.5,1.5l0.3,1.8l-0.1,0.5l-0.5,0.2l-5.3,0
	l-0.6-0.2l-0.2-0.6l-0.2-1.5l-0.1-0.3l-0.4-0.8l-0.7-0.6l-0.9-0.4l-1-0.2h-1l-1,0.2l-0.8,0.4l-0.6,0.6l0,0.1l-0.5,1.1l-0.3,1.4
	l-0.2,3.8L602.7,682.5z"/>
<path class="st6" d="M507.5,691.1l0.1,3.7l-0.1,0.3l-0.3,0.1l-15.5,0.1l-0.3-0.1l-0.2-0.3l-0.1-25.1l0.1-0.2l0.4-0.2l5.4,0.1
	l0.3,0.1l0.1,0.3l0,20.4l0.3,0.4l0.1,0l9.3,0l0.3,0.1L507.5,691.1z"/>
<path class="st6" d="M519,691.1l-0.3,3.6l-0.2,0.5l-0.5,0.2l-5.1,0.1l-0.6-0.4l-0.1-0.5l6.3-24.7l0.1-0.2l0.6-0.3l7.2,0l0.4,0.1
	l0.2,0.4l7.2,24.8l-0.1,0.6l-0.6,0.3l-5.4-0.1l-0.3-0.1l-0.3-0.5l-0.9-3.9l-0.4-0.5l-0.3-0.1l-6.4,0l-0.5,0.3L519,691.1z
	 M520.5,685.2l0,0.3l0.2,0.2l0.1,0l4.1-0.1l0.3-0.1l0.1-0.3l-2.2-9.8l-0.4-0.3l-0.4,0.3l0,0L520.5,685.2z"/>
<path class="st6" d="M550.3,695.8l-2.6-0.2l-2.2-0.5l-1.9-0.9l-1.4-1.2l-1.1-1.7l-0.5-2.1l-0.2-3.2l-0.2-16l0.1-0.4l0.4-0.2h5.2
	l0.4,0.1l0.1,0.4l0.1,18.2l0.4,1.5l0.5,0.7l0.8,0.5l0.9,0.3l1,0.1l1-0.1l0.9-0.3l0.7-0.5l0.6-0.7l0.4-1.5l0-18.2l0.1-0.4l0.4-0.1
	l5.2,0l0.5,0.1l0.1,0.4l-0.1,16l-0.2,3.2l-0.5,2.1l-1.1,1.7l-1.4,1.2l-1.9,0.9l-2.2,0.5L550.3,695.8z"/>
<path class="st6" d="M335,688.7l-0.2-0.7l-0.7-0.8l-1-0.6l-4.3-1.7l-1.4-0.7l-1.2-0.8l-1-0.9l-0.8-1l0,0l0,0l0,0l-0.8-1.8l-0.4-2
	l0-1.4l0.2-1.3l0.4-1.2l0.6-1l1.5-1.5l2.2-1.1l2.6-0.5l3,0l2.4,0.6l2,1.2l0,0l0,0l1.5,1.8l1,2.4l-0.1,0.8l-0.7,0.4l-0.1,0h-3.2
	l-1-0.3l-0.7-0.8l-0.4-0.7l-0.5-0.5l0,0l-1.2-0.5l-1.6,0l-1.1,0.3l-0.7,0.6l0,0l-0.3,0.6l-0.1,0.3l0.1,0.9l0.5,0.8l0.9,0.9l1,0.6
	l2,0.9l3,1.4l2,1.2l1.5,1.3l1,1.4l0.6,1.8l0.1,2.1l-0.5,1.9l-0.9,1.5l-1.3,1.2l-1.7,1l-2,0.6l-2.9,0.4l-2.6-0.1L327,695l-1.8-1.1
	l-0.9-0.9l-0.8-1.1l-1.1-2.5l0.1-0.7l0.6-0.4l0.1,0h4l0.8,0.3l0.5,0.7l0.4,0.8l0.6,0.6l0,0l0,0l0,0l0.7,0.4l0.8,0.2l2.1-0.2l0.8-0.3
	l0.6-0.6l0.3-0.8L335,688.7z"/>
<path class="st6" d="M363.4,682.4l0,1.7l-0.2,0.4l-0.4,0.1H355l-0.5,0.2l-0.1,0.4v5l0.1,0.4l0.4,0.1h9.2l0.4,0.1l0.1,0.3v3.6
	l-0.1,0.4l-0.4,0.1h-15.7l-0.3-0.1l-0.1-0.3l0-12.4l-0.1-12.4l0.1-0.3l0.3-0.1l15.7-0.1l0.4,0.1l0.1,0.4l0,3.6l-0.1,0.3l-0.4,0.1
	l-9.2,0.1l-0.4,0.1l-0.1,0.4l0,5l0.1,0.4l0.4,0.2l7.7-0.1l0.4,0.1l0.2,0.4L363.4,682.4z"/>
<path class="st6" d="M387.7,685l2,5.6l1.9,4.3l0,0.2l-0.2,0.1h-6.6l-0.3-0.2l-2.7-9.3l-0.3-0.4l-0.4-0.2l-2.3-0.1l-0.5,0.2l-0.1,0.5
	v9.2l-0.1,0.3l-0.5,0.3h-5.1l-0.5-0.2l-0.2-0.5v-24.4l0.1-0.4l0.4-0.1l9.5-0.1l2.8,0.2l2.3,0.5l1.8,0.9l1.4,1.3l0.7,1.1l0.4,1.3
	l0.2,1.5l0,1.7l-0.6,2.8l-0.6,1.2l-0.7,1l-1.4,1.3l-0.3,0.3L387.7,685z M378.2,674.8v5.1l0.1,0.3l0.3,0.1l4,0l1-0.2l0.8-0.5l0.5-0.8
	l0.2-0.9v-1.1l0,0l-0.2-0.9l-0.5-0.8l-0.8-0.5l-1-0.2l-4,0l-0.3,0.1L378.2,674.8z"/>
<path class="st6" d="M407.4,689.3l3.8-19.3l0.2-0.3l0.4-0.1l5.6,0.1l0.4,0.1l0,0.4l-6.4,24.8l-0.2,0.3l-0.4,0.2l-3.3,0l-3.3,0
	l-0.4-0.1l-0.2-0.3l-6.6-24.7l0-0.4l0.4-0.1l5.6-0.1l0.4,0.1l0.2,0.3L407.4,689.3z"/>
<path class="st6" d="M440.4,682.4l0,1.7l-0.2,0.4l-0.4,0.1h-8.2l-0.2,0.1l-0.1,0.2l-0.1,5.4l0.1,0.3l0.3,0.1h9.4l0.4,0.2l0.2,0.4
	v3.5l-0.1,0.4l-0.5,0.2h-16l-0.3-0.3l0-12.5l-0.1-12.5l0.3-0.3l16-0.1l0.4,0.2l0.1,0.4l0,3.5l-0.2,0.4l-0.4,0.2l-9.4,0.1l-0.3,0.1
	l-0.1,0.3l0.1,5.4l0.1,0.2l0.2,0.1l8.2-0.1l0.4,0.1l0.2,0.4L440.4,682.4z"/>
<path class="st6" d="M463.4,684.7l4.5,10.2l0,0.1l-0.1,0.3l-0.2,0.1h-6.1l-0.3-0.2l-2.6-8.1l-0.5-1.2l-0.5-0.5l-2.1-0.3l-0.6,0.2
	l-0.2,0.6v9.3l-0.1,0.2l-0.2,0.1h-5.5l-0.2-0.1l-0.1-0.2v-24.9l0.1-0.3l0.4-0.2l9.6-0.1l2.5,0.2l2,0.4l1.6,0.7l1.3,1.1l0.6,0.9
	l0.5,1.1l0.4,2.5l0,1.6l-0.3,1.4l-0.5,1.3l-0.7,1.1l0,0l0,0l-1,1.1l-1.3,0.9l-0.3,0.4L463.4,684.7z M454.5,675.1l0.1,4.7l0.2,0.5
	l0.5,0.2h0.1l3.1-0.1l1.1-0.2l0.9-0.6l0.6-0.9l0.2-1l0,0l0-0.9l0,0l-0.2-1l-0.7-0.9l-1-0.5l-1.1-0.2l-3.1,0.1l-0.5,0.2L454.5,675.1z
	"/>
<path class="st6" d="M574.3,678.7V695l-0.1,0.3l-0.3,0.1H569l-0.5-0.2l-0.2-0.5v-24.8l0.1-0.4l0.4-0.1l6.6,0.1l0.4,0.1l0.3,0.3
	l5.9,14.5l0.6,1l0.2-1.1v-14.1l0.2-0.5l0.5-0.2h4.5l0.5,0.2l0.2,0.5v24.7l-0.1,0.4l-0.4,0.1h-5.6l-0.5-0.1l-0.3-0.4l-7.2-16.2
	l-0.2-0.3L574.3,678.7z"/>
<path class="st6" d="M634.1,680.1h3l0.5-0.3l0.1-0.4l0-9.2l0.2-0.5l0.5-0.2l5.3,0l0.2,0.1l0.2,0.6l0,12.2l-0.1,12.2l-0.2,0.6
	l-0.2,0.1l-5.3,0l-0.5-0.2l-0.2-0.5v-9.2l-0.1-0.4l-0.5-0.3l-3,0h-3l-0.5,0.3l-0.1,0.4l0,9.2l-0.2,0.5l-0.5,0.2l-5.3,0l-0.2,0
	l-0.2-0.6l0-12.2l0-12.2l0.2-0.6l0.2,0l5.3,0l0.5,0.1l0.2,0.5v9.2l0.1,0.4l0.5,0.3L634.1,680.1z"/>
<path class="st6" d="M658.2,684.9l0,5.4l0.2,0.4l0.4,0.2l9.2,0l0.3,0.1l0.2,0.4l0,3.5l-0.1,0.3l-0.4,0.2l-15.5,0.1l-0.4-0.2
	l-0.2-0.4l-0.1-24.7l0.1-0.3l0.4-0.2l15.5-0.2l0.1,0l0.3,0.2l0.1,0.3l0.1,3.8l-0.1,0.4l-0.4,0.2l-9.1-0.1l-0.4,0.2l-0.2,0.4l0,4.8
	l0.1,0.3l0.4,0.2l8,0l0.4,0.2l0.1,0.3l0.2,3.4l-0.1,0.4l-0.4,0.2l-8.2,0l-0.4,0.2L658.2,684.9z"/>
<path class="st6" d="M690.7,685.1l4.3,9.8l0,0.3l-0.2,0.2l-0.1,0h-6.5l-0.2-0.1l-0.1-0.2l-2.9-9.9l-0.3-0.4l-0.5-0.1h-1.8l-0.4,0.2
	l-0.2,0.4v9.6l-0.1,0.5l-0.5,0.2h-4.8l-0.6-0.2l-0.2-0.5V670l0.3-0.3l5.4-0.1l6.1,0.1l1.7,0.2l1.5,0.4l1.2,0.6l1,0.8l0,0l0,0
	l0.8,1.1l0.6,1.3l0.3,1.5l0.1,1.7l-0.1,1.7l-0.4,1.5l-0.6,1.3l-0.8,1.1l-1.7,1.3l-0.4,0.4L690.7,685.1z M681.8,675l0,4.7l0.2,0.4
	l0.4,0.2l3.8,0l0.9-0.2l0.8-0.5l0.5-0.7l0.2-0.9v-1.3l-0.2-0.9l-0.5-0.7l-0.8-0.5l-0.9-0.2l-3.8,0l-0.4,0.2L681.8,675z"/>
<path class="st0" d="M378.2,674.8l0.1-0.2l0.3-0.2l4,0l1,0.2l0.8,0.5l0.5,0.8l0.2,0.9l0,0l0,0v1.1l0,0l-0.2,0.9l-0.5,0.8l-0.8,0.5
	l-1,0.2l-4,0l-0.3-0.1l-0.1-0.3V674.8z"/>
<path class="st0" d="M454.5,675.1l0.2-0.5l0.6-0.3l3.1-0.1l1.1,0.2l1,0.5l0.7,0.9l0.2,1l0,0l0,0.9l-0.2,1l-0.6,0.9l-0.9,0.6
	l-1.1,0.2l-3.1,0.1l-0.5-0.2l-0.3-0.6L454.5,675.1z"/>
<path class="st0" d="M681.8,675l0.2-0.4l0.4-0.2l3.8,0l0.9,0.2l0.8,0.5l0.5,0.7l0.2,0.9v1.3l0,0l-0.2,0.9l-0.5,0.7l-0.8,0.5
	l-0.9,0.2l-3.8,0l-0.3-0.1l-0.2-0.5L681.8,675z"/>
<path class="st0" d="M520.5,685.2l1.9-9.9l0.3-0.3l0.3,0.1l0.2,0.2l2.2,9.8l0,0.2l-0.4,0.2l-4.1,0.1l-0.3-0.1L520.5,685.2z"/>
<path class="st0" d="M789.9,711.2L789.9,711.2l0.4-0.1l0.1-0.3l-0.3-6.6l0.3-1l0.9-0.5l0.5-0.1l0.5,0l0.4,0.1l0.2,0.3l0.1,0.5
	l0.1,2.1l0.4,5.8l0.4,2l0.6,1.6l2,4.7l0,0.5l-0.3,0.4l-1.8,1l-0.3,0.1l-0.2-0.2l-3.1-6.9l-0.2-0.3l-0.3-0.2l-2.5-0.6l-2.6-0.9
	l-5.3-2.5l-0.4-0.4l0.4-0.4l1.2-0.7l0.8-0.2l0.8,0.2l4,1.7L789.9,711.2z"/>
<path class="st0" d="M229.5,714.8l-1.9,3.8l0,0.5l0.2,0.3l5,3.2l0.2,0.3l-0.1,0.6l-1,1.5l-0.4,0.3l-0.5-0.1l-7.9-4.7l-0.3-0.4l0-0.5
	l8.5-16l0.3-0.3l0.6,0l9.6,5.9l0.3,0.4l-0.1,0.5l-0.9,1.3l-0.4,0.3l-0.5-0.1l-6.6-4l-0.5-0.1l-0.4,0.3l-1.7,3.4l0,0.5l0.3,0.4
	l5.8,3.2l0.3,0.3l0,0.6l-0.9,1.5l-0.4,0.3l-0.5-0.1l0,0l-5.4-3.3l-0.6,0L229.5,714.8z"/>
<path class="st0" d="M251.7,728.6l8.9-7.1l0.1-0.1l0.2,0l3.4,1.8l0.2,0.2l-0.1,0.3l-17.3,11.7h-0.4l-0.2-0.3l3-20.2l0.1-0.2l0.4-0.1
	l2.8,1.4l0.1,0.1l0.1,0.2l-1.8,11.7l0.1,0.3l0.3,0.1l0,0L251.7,728.6z"/>
<path class="st0" d="M765.7,722.5l1.9,2.9l0.3,0.2l0.4-0.1l6-3.4l0.4-0.1l0.4,0.3l0.8,1.6l0,0.4l-0.3,0.3l-6.1,3.2l-0.3,0.3l0.1,0.4
	l2.1,3.9l0.3,0.2l0.4,0l0.1-0.1l7.3-4.3l0.5-0.1l0.3,0.4l0.5,1.6l0,0l0,0.4l-0.2,0.3l-9.5,5.5l-0.4,0.1l-0.3-0.3l-8.5-14.8l0-0.4
	l0.3-0.3l10.1-5.4l0.2-0.1l0.3,0.1l0.2,0.2l0.7,1.5l0,0.4l-0.3,0.3l-7.5,4l-0.2,0.2L765.7,722.5z"/>
<path class="st4" d="M463.4,725.3l-0.3-0.1l-0.4,0.3l-2.5,9.8l-0.2,0.4l-0.4,0.3l-1.3,0.2l-0.3,0l-0.4-0.2l-0.3-0.4l-2.4-8.6
	l-0.5-1.4l-0.3-0.5l-0.2,0.5l0,1.5l0.4,8.2v0l-0.3,0.7l-0.7,0.3h-0.7l-0.8-0.2l-0.2-0.8v-12.6l0.2-0.5l0.5-0.2h2.6l0.8,0.2l0.5,0.6
	l1.2,4.2l0.8,3.9l0.3,1.2l0.3,0.4l0,0l0.4-0.4l0.4-1.1l2.4-8.4l0.2-0.4l0.5-0.1l2.8,0.1l0.5,0.2l0.2,0.5l-0.1,12.3l-0.2,0.6
	l-0.6,0.3l-0.9,0l-0.8-0.2l-0.2-0.8l0.4-9.7L463.4,725.3L463.4,725.3z"/>
<path class="st8" d="M477.5,736.5l-1.3-0.2l-1.2-0.5l-1.1-0.7l-1-0.9L472,733l-0.6-1.3l-0.3-1.4l-0.1-1.4l0.2-1.4l0.4-1.4l0.7-1.3
	l0.9-1.1l1-0.9l1.2-0.6l1.3-0.4l1.3-0.1l1.3,0.2l1.2,0.5l1.1,0.7l1,0.9l0.8,1.1l0.6,1.3l0.3,1.4l0.1,1.4l-0.2,1.4l-0.4,1.4l-0.7,1.3
	l-0.9,1.1l-1,0.9L480,736l-1.3,0.4L477.5,736.5z M477.6,734.4l0.7-0.1l0.7-0.3l1.2-1.1l0.8-1.7l0.3-2l-0.3-2l-0.8-1.7l-1.2-1.2
	l-0.7-0.3l-0.7-0.1l-0.7,0.1l-0.7,0.3l-1.2,1.1l-0.8,1.7l-0.3,2l0.3,2l0.8,1.7l1.2,1.2l0.7,0.3L477.6,734.4z"/>
<path class="st8" d="M509.9,734h5.2l0.8,0.3l0.2,0.8l0,0.3l-0.2,0.6l-0.6,0.2l-8.4-0.1l-0.3-0.1l-0.1-0.3v-13.1l0.2-0.4l0.4-0.2
	l8,0.1l0.8,0.3l0.3,0.7v0l0,0.5l-0.3,0.5l-0.6,0.1L510,724l-0.5,0.1l-0.2,0.5l0,2.6l0.2,0.5l0.5,0.2h4.8l0.5,0.2l0.2,0.5l0,0.5
	l-0.3,0.8l-0.7,0.3h-0.1l-4.5-0.2l-0.5,0.1l-0.2,0.5l0,2.9l0.1,0.5L509.9,734z"/>
<path class="st8" d="M540.1,733.6l-0.3,1.7l-0.4,0.8l-0.8,0.3h-1.3l-0.7-0.2l0-0.7l1.3-3.8l2-6.8l0.1-0.5l0.3-1l0.4-0.6l1-0.5l0.8,0
	l0.7,0.2l0.6,0.5l0.4,0.6l2.3,5.8l1.9,6.3l-0.1,0.6l-0.6,0.2l-1.4,0l-0.8-0.3l-0.5-0.8l-0.5-1.8l-0.3-0.4l-0.5-0.1h-3l-0.5,0.1
	L540.1,733.6z M540.8,730.8l0.1,0.4l0.4,0.2l2.2,0l0.3-0.2l0.1-0.4l-1.2-4.9l-0.3-0.3l-0.4,0.1l-0.2,0.3L540.8,730.8z"/>
<path class="st8" d="M489.8,722.6l0.1-0.3l0.4-0.2l4.7,0.1l1.2,0.2l1.2,0.4l1.1,0.6l0.9,0.8l0.8,1l0.6,1.1l0.3,1.2l0.1,1.2l0,1.3
	l0,0l-0.1,1.2l-0.4,1.2l-0.6,1.1l-0.8,0.9l-1,0.8l-1.1,0.5l-1.2,0.3l-1.2,0.1l-4.7-0.1l-0.3-0.2l-0.1-0.3L489.8,722.6z M492.4,725.1
	l0.2,8.2l0.3,0.6l0.6,0.2l1,0l1.4-0.3l1.2-0.8l0.8-1.2l0.2-1.4l-0.1-2.5l-0.3-1.4l-0.8-1.2l-1.2-0.8l-1.4-0.2l-1,0l-0.6,0.3
	L492.4,725.1z"/>
<path class="st8" d="M523.9,731.6l0.3,3.8l-0.1,0.4l-0.4,0.2h0l-2.1,0.1L521,736l-0.1-0.5l0.1-12.8l0.3-0.3l3.3-0.2l2.6,0.2l1.9,0.5
	l1.2,0.8l0.6,0.9l0.3,0.9l0,1.1l-0.3,1.1l-0.6,1.1l-1,1.2l-0.3,0.6l0.2,0.7l2.7,4.1l0,0.3l-0.2,0.2l0,0l-1.7,0.2l-1.6-0.2l-0.5-0.3
	l-0.2-0.4l-1-3.5l-0.2-0.4l-0.4-0.3l-1-0.3l-0.8,0.1l-0.3,0.3L523.9,731.6z M523.9,725.2l0,2.8l0.3,0.6l0.6,0.3l0.8,0l1-0.1l0.8-0.4
	l0.6-0.6l0.2-0.7l0,0v-0.7l-0.2-0.8l-0.6-0.6l-0.8-0.4l-1-0.2l-0.8,0l-0.6,0.3L523.9,725.2z"/>
<path class="st8" d="M556.5,722.3l4.5,0l0.7,0.3l0.2,0.7l0,0.3l-0.1,0.5l-0.4,0.2h-2.8l-0.3,0.1l-0.1,0.3l0,10.8l-0.1,0.4l-0.4,0.2
	l-1,0.1l-1-0.1l-0.4-0.2l-0.2-0.4l0-10.8v0l-0.2-0.3l-0.3-0.1h-2.8l-0.5-0.2l-0.1-0.5l0-0.3l0.2-0.7l0.7-0.2L556.5,722.3z"/>
<path class="st8" d="M574.1,729.2l-0.2,0.6l0,0l-0.6,0.4l-1,0.1l-2.8-0.1l-0.8,0.2l-0.3,0.8l0,1.9l0.2,0.7l0.7,0.2l4.4-0.2l0.7,0.3
	l0.3,0.7v0l0,0.5l-0.2,0.5l-0.5,0.2h-8l0,0l-0.4-0.2l-0.2-0.4l0.1-6.3l-0.1-6.3l0.2-0.4l0.4-0.2l0,0l8,0l0.5,0.2l0.2,0.5l0,0.5v0
	l-0.3,0.7l-0.7,0.3l-4.4-0.2l-0.7,0.2l-0.2,0.7l0,1.9l0.3,0.8l0.8,0.2l2.8-0.1l1,0.1l0.6,0.4L574.1,729.2z"/>
<ellipse transform="matrix(1.221695e-02 -0.9999 0.9999 1.221695e-02 -257.2211 1197.8169)" class="st0" cx="477.7" cy="729.1" rx="5.3" ry="3.7"/>
<path class="st0" d="M492.4,725.1l0.1-0.5l0.3-0.3l0.4-0.1l1,0l1.4,0.2l1.2,0.8l0.8,1.2l0.3,1.4l0.1,2.5l-0.2,1.4L497,733l-1.2,0.8
	l-1.4,0.3l0,0l-1,0l-0.6-0.2l-0.3-0.6L492.4,725.1z"/>
<path class="st0" d="M523.9,725.2l0.3-0.6l0.6-0.3l0.8,0l1,0.2l0.8,0.4l0.6,0.6l0.2,0.8v0.7l0,0l-0.2,0.7l-0.6,0.6l-0.8,0.4l-1,0.1
	l-0.8,0l-0.6-0.3l-0.3-0.6L523.9,725.2z"/>
<path class="st0" d="M540.8,730.8l1-4.9l0.1-0.3l0.3-0.1l0.3,0.1l0.2,0.3l1.2,4.9l0,0.3l-0.4,0.3l-2.2,0l-0.2-0.1L540.8,730.8z"/>
<path class="st9" d="M614.7,748.3l-48.9,29.1h-0.3l-0.2-0.3l-0.2-21.6l0-0.1l0.1-0.2l49.1-29l0.3,0l0.2,0.3v21.6L614.7,748.3z"/>
<path class="st9" d="M460.6,778.1l-50.1-29.3l-0.1-0.1l0-0.2l-0.1-21l0.1-0.3l0.4,0l50,29.3l0.1,0.1l0,0.2l0.1,21l-0.1,0.3
	L460.6,778.1z"/>
<path class="st0" d="M274.4,732.8l-3.5-2.2l-0.3-0.4l0.1-0.6l0.8-1.4l0.4-0.3l0.6,0.1l13.4,7.7l0.3,0.3l0,0.7l-0.9,1.7l-0.5,0.4
	l-0.6-0.1l-5.2-3.3l-0.5-0.1l-0.5,0.4l-6.7,13.3l-0.3,0.3l-0.4,0.1l-0.4-0.1l-1.9-1l-0.3-0.4l0-0.6l6.6-13.4l0-0.1l0-0.5
	L274.4,732.8z"/>
<path class="st0" d="M749.9,728.2l1-0.5c0.4-0.2,0.9-0.1,1.1,0.3l7.5,14.1c0.2,0.4,0.1,0.9-0.3,1.1l-1,0.5c-0.4,0.2-0.9,0.1-1.1-0.3
	l-7.5-14.1C749.4,728.9,749.5,728.4,749.9,728.2z"/>
<path class="st0" d="M742.4,744.9l-3.4,1.5l-0.7,0l-0.5-0.5l0,0l-0.1-0.3l0.1-0.7l0.5-0.7l1.3-0.9l0,0l2.3-1.2l2.5-0.9l0.5,0
	l0.3,0.3l0.9,1.7l0.5,1.7l0.2,1.6l-0.2,1.5l-0.6,1.8l-0.9,1.6l0,0l-1,1.1l-1.2,0.9l-1.4,0.8l-1.6,0.6l-2.5,0.5l-2.4-0.3l-1.4-0.6
	l-1.3-0.8l-1.1-1.1l-0.9-1.3l-0.7-1.5l-0.5-1.6l-0.2-1.6l0-1.7l0.1-0.9l0.5-1.7l0.7-1.5l0.9-1.4l1.1-1.2l1.4-1l1.5-0.7l1.5-0.4
	l1.6-0.2l1.7,0.2l1.7,0.5l0.3,0.3l-0.1,0.4l-0.1,0.1l-1.9,1.3l-0.5,0.2l-0.4,0l-1.6,0l-1.4,0.3l-1.2,0.5l-1,0.7l0,0l0,0l-0.7,0.8
	l-0.6,1l-0.7,2.5l-0.1,1.5l0,0l0.5,2.2l1.3,2.2l1.4,1.2l1.6,0.5l1.9-0.1l1.9-0.7l1.7-1.2l1.1-1.4l0,0l0.5-1.6l0-1.9l-0.5-0.7
	l-0.8-0.1L742.4,744.9z"/>
<path class="st0" d="M290.1,757.2l5,2.7l0.3,0.4l0,0.5l-0.8,1.5l-0.4,0.3l-0.5,0l-8.1-4.2l-0.3-0.4l0-0.5l8.7-16.3l0.4-0.3l0.5,0.1
	l9,5.3l0.3,0.4l-0.1,0.5l-0.9,1.3l-0.2,0.2h-0.6l-5.9-3.2l-0.6,0l-0.3,0.3l-2,3.4l-0.1,0.5l0.3,0.4l4.9,2.5l0.3,0.4l-0.1,0.5
	l-0.9,1.4l-0.4,0.3l-0.5-0.1l-4.6-2.6l-0.1-0.1l-0.4,0l-0.3,0.3l-1.9,3.8l0,0.5L290.1,757.2z"/>
<path class="st0" d="M714.6,748.1l1.3-0.6c0.4-0.2,0.9,0,1.1,0.4l7.5,14.9c0.2,0.4,0,0.9-0.4,1.1l-1.3,0.6c-0.4,0.2-0.9,0-1.1-0.4
	l-7.5-14.9C714.1,748.8,714.2,748.3,714.6,748.1z"/>
<path class="st0" d="M307.4,748.2l1.6,0.7c0.5,0.2,0.7,0.8,0.5,1.3l-7.1,15.8c-0.2,0.5-0.8,0.7-1.3,0.5l-1.6-0.7
	c-0.5-0.2-0.7-0.8-0.5-1.3l7.1-15.8C306.3,748.2,306.9,748,307.4,748.2z"/>
<path class="st10" d="M514.3,808.7l-0.6-2.4l-0.1-1.4l0-31.1l35-21.6l0.1-0.1l0.5,0.1l0.2,0.5v34.6l-0.1,0.5l-0.4,0.4L514.3,808.7z"
	/>
<path class="st9" d="M513.6,773.9l0,31.1l0.1,1.4l0.6,2.4l-0.6,0.4l-0.6,0.1l0,0l-0.4-0.2L496,798.8l-17.2-10l-0.7-0.5l-0.5-0.7
	l-0.3-0.8l-0.1-0.8v-33.1l0.1-0.3l0.3-0.1l0,0l0.1,0L513.6,773.9z"/>
<path class="st0" d="M707,770.2l0.1-0.2l0,0l0,0l0.2-0.9v-1l-0.2-1.1l-0.5-1.2l-4.5-9.5l-0.1-0.7l0.5-0.5l0.9-0.4l0.8-0.1l0.5,0.5
	l4.1,8.3l0.8,1.8l0.5,1.6l0.2,1.5l-0.1,1.4l-0.4,1.3l-0.8,1.4l-1,1.2l-1.4,1l-1.6,0.8l-1.7,0.4l-1.8,0.1l-1.7-0.3l-1.6-0.6l-1.1-0.7
	l-1.7-1.8l-1.7-2.9l-3.4-7.1l-0.1-0.6l0.5-0.3l1.1-0.3l0.7,0l0.4,0.5l3.8,7.4l1.2,1.9l1,1.1l0.9,0.5l1.8,0.4l1-0.1l1-0.3l1.8-1.1
	l0.7-0.8L707,770.2z"/>
<path class="st0" d="M325.5,762.7l-6.6,12.8l-0.4,0.4l-0.5,0l-1.9-0.9l-0.4-0.4l0-0.6l6.6-12.9l0-0.5l-0.3-0.4l0,0l-3.1-1.6
	l-0.3-0.3l-0.1-0.4l0.1-0.2l0.8-1.9l0.3-0.3l0.7,0l11.7,6.7l0.4,0.5l-0.1,0.6l-0.9,1.3l-0.4,0.3l-0.5-0.1l-4-2.2l-0.4-0.1l-0.4,0.1
	L325.5,762.7z"/>
<path class="st0" d="M339.8,766.5l2.1,1c0.4,0.2,0.5,0.6,0.3,1l-8,16.3c-0.2,0.4-0.6,0.5-1,0.3l-2.1-1c-0.4-0.2-0.5-0.6-0.3-1
	l8-16.3C339,766.5,339.4,766.3,339.8,766.5z"/>
<path class="st0" d="M681,780.6l-3.8,2l-0.1,0l-0.8,0l-0.6-0.6l-0.1-0.4l0.2-0.9l0.5-0.6l6.8-3.6l0.5,0l0.4,0.4l0,0.1l1,4.8l0.1,1.2
	l-0.3,1.7l-0.9,1.7l-1.5,1.7l-2,1.6l-1.6,0.9l-1.6,0.6l-1.6,0.4l-1.5,0.1l0,0l0,0l0,0l-1.6-0.2l-1.6-0.5l-1.8-1.1l-1.4-1.4l-1-1.6
	l-0.7-1.7l-0.3-1.9l0.1-2l0.5-2l0.8-1.9l1.1-1.7l1.4-1.5l2.3-1.6l2.6-0.9l1.3-0.2l1.3,0l1.1,0.2l1.1,0.5l0.9,0.6l0.4,0.6l0.3,1.1
	l-0.2,0.6l0,0l-0.7,0.2l-1.2-0.3l-1.4-0.4l-1.3-0.2l-1.3,0l-1.2,0.2l0,0l-1.5,0.7l-1.4,1.2l-1,1.3l-0.7,1.5l-0.3,1.5l0,1.6l0.3,1.6
	l0.6,1.5l0.9,1.3l1.1,1l1.3,0.7l1.1,0.3l1.2,0l1.2-0.2l1.3-0.4l2.1-1.2l1.4-1.6l0,0l0.7-2l0-2.3l0-0.1l-0.3-0.4L681,780.6z"/>
<path class="st0" d="M360,790.7l0.2,0.4l0.4-0.3l4.8-8.6l0.6-0.6l0.8,0.2l1.2,0.7l0.5,0.5l-0.2,0.7l-3.7,6.7l-4,8.1l0,0l-0.7,0.6
	l-1,0l-0.4-0.2l-0.6-0.7l-0.4-1l-2.7-15.4l-0.3-0.7l-0.5,0.6l-5.5,11.1l-0.5,0.5l-0.7-0.1l-1.4-0.8l-0.6-0.6l0.1-0.9l7.8-15.9
	l0.3-0.4l0.5,0.1l2.3,1.3l0.6,0.8l0.4,1.5L360,790.7z"/>
<path class="st0" d="M654.4,796.1l-1.2,0.3l-4,1l-3,0.3l-2.2-0.3l-0.8-0.4l-0.7-0.6l-0.7-1.4l-0.3-1.8l0.2-1.7l0,0l0.7-1.6l1.3-1.5
	l1.9-1.4l2.1-0.8l0,0l0,0l1.4-0.2l1.5,0l1.6,0.3l1.6,0.6l0.1,0l0.5,0.6l-0.1,0.7l-0.2,0.3l-0.4,0.5l-0.5,0.3l0,0l-1.2,0.1l-2.5-0.5
	l-1.9,0l-1.5,0.6l-0.9,0.9l-0.7,1.2l0,0.1l-0.1,0.8l0.2,0.8l0.5,0.6l0.7,0.4l1.6,0.3l2-0.2l2.4-0.6l3.2-1.2l0.9-0.3l1,0l0.8,0.5
	l0.8,1.3l0.5,1.4l0.2,1.7l-0.3,1.8l-0.9,2.1l0,0l-0.9,1.2l-1.1,1.1l-1.4,0.9l-1.6,0.8l-2.5,0.7h-2.4l-2.1-0.6l-2-1.2l-0.4-0.7
	l0.2-0.8l0.1-0.2l0.4-0.5l0.5-0.2l0,0h0.5l0.6,0.2l1.3,0.7l1.3,0.4l1.2,0.2l1.2-0.1l0,0l0,0l1.2-0.3l1.1-0.6l1.1-0.8l1-1.1l0.6-0.9
	l0.3-0.9l-0.1-1l-0.4-1.1l-0.3-0.3L654.4,796.1z"/>
<path class="st0" d="M377.2,796.7l-0.1-0.4l-0.3,0.3l-4.6,8.2l-0.6,0.6l-0.8-0.1l-1.1-0.5l-0.6-0.6l0.2-0.8l8.4-14.8l0.3-0.3l0.5,0
	l0.9,0.6l0.5,0.6l0.3,1.2l0,8.6l0.1,0.3l0.3,0l8.3-4.3l0.9-0.1l2.3,0.8l0,0l0.2,0.4l-2.2,3.9l-2.4,3.8l-2.5,3.7l-2.7,3.6l-0.7,0.3
	h-0.4l-0.2,0l-0.5-0.5l0-0.7l5.8-10.2l0.1-0.5l-0.5,0.1l-7,4l-0.2,0.1l-0.5,0l-0.4-0.2l-0.3-0.4l-0.1-0.5L377.2,796.7z"/>
<path class="st0" d="M629.7,812l-0.4-1l-0.6-0.5l0,0l-0.7,0.1l-0.9,0.6l-2.4,1.9l-2.3,1.2l-2.2,0.5l-1.9-0.2l-1.6-0.8l-1.4-1.4
	l-1.2-2l-1-2.5l0-0.7l0.6-0.4l0.6-0.2l0.8,0.1l0.5,0.6l0.8,1.8l0.9,1.4l1,0.9l1.2,0.5l0,0l1.6,0.1l1.8-0.5l1.9-1l1.7-1.3l0,0
	l0.4-0.3l0.5-0.8l-0.2-0.8l-3.3-5.8l-0.2-0.8l0.5-0.6l0.9-0.5l0.9-0.1l0.6,0.6l1.7,3.2l2.5,4.2l1.2,2l0.8,1.7l0.4,1.5l0,1.4l-0.6,2
	l-1.5,2l-1.9,1.7l-2.1,1.1l0,0l0,0l-1.6,0.4l-1.7,0.1l-1.8-0.2l-1.9-0.4l-0.7-0.5l-0.1-0.8l0.1-0.4l0.2-0.5l0.4-0.4l0.5-0.2l0.5,0
	l0,0l0.1,0l1.4,0.5l1.4,0.1l0,0l0,0l1.2-0.1l1.1-0.4l2.3-1.4l0.8-0.9l0.5-1l0,0l0,0l0.2-1.1l-0.2-1.2L629.7,812z"/>
<path class="st0" d="M402.9,810.5l5.8,3.5l0.3,0.4l-0.1,0.5l-0.8,1.5l-0.3,0.3l-0.6,0l-5.7-3.4l-0.5-0.1l-0.4,0.3l-1.9,3.8l0,0.1
	l0,0.4l0.3,0.3l6,3.4l0.3,0.4l0,0.5l-0.9,1.8l-0.4,0.3l-0.5-0.1l-9-5l-0.2-0.2l-0.1-0.7l8-16.3l0.4-0.3l0.5,0.1l10.1,6.2l0.3,0.3
	l-0.1,0.6l-1.1,1.5l-0.4,0.3l-0.5-0.1l-6.6-4.2l-0.5-0.1l-0.4,0.3l0,0l-1.3,2.8l0,0.5L402.9,810.5z"/>
<path class="st0" d="M426,825.2l6.3-5l0.6-0.3l0.7,0.1l2.4,1.2l0.3,0.3l-0.1,0.4L436,822l-7.8,5.5l-1.9,1.5l-1.2,1.3l-0.7,1.3
	l-0.7,2.1l-0.2,0.6l-0.5,0.7l-0.9,0l-1.3-0.5l-0.7-0.6l0-0.9l1.1-3.1l0.5-1.8l0.4-6.1l0.1-7.8l0.2-0.6l0.6,0.1l2,1.2l0.7,0.7l0.2,1
	l-0.5,8.4l0.1,0.4L426,825.2z"/>
<path class="st0" d="M594.6,821.2l1.9,3.4l0.3,0.2l0.4,0l0.1-0.1l6.1-3.6l0.5,0l0.4,0.3l0.5,1.4l0,0.3l-0.3,0.4l-6,3.3l-0.3,0.3
	l0,0.4l2.1,4.7l0.1,0.2l0.3,0.2l0.4-0.1l7.1-4.2l0.4-0.1l0.4,0.2l1,1.5l0.1,0.4l-0.3,0.5l-10,5.5l-0.5,0l-0.3-0.3l-8.3-16.1
	l-0.1-0.3l0.3-0.4l9.8-5.2l0.4,0l0.3,0.3l0.9,1.5l0,0.4l-0.3,0.4l-7.3,3.9l-0.3,0.4L594.6,821.2z"/>
</svg>
